<svg id="svg" version="1.1" width="1085" height="1085" xmlns="http://www.w3.org/2000/svg" xmlns:xlink="http://www.w3.org/1999/xlink" ><g id="svgg"><path id="path0" d="M74.470 31.584 C 41.450 34.913,13.849 56.140,9.417 81.615 C 2.425 121.815,45.189 154.989,96.443 149.126 L 102.082 148.481 112.443 154.793 C 126.506 163.362,125.799 163.576,124.859 151.038 C 124.507 146.336,124.224 142.157,124.231 141.751 C 124.240 141.210,124.984 140.633,127.033 139.581 C 140.391 132.723,152.029 120.596,156.811 108.551 C 173.322 66.963,129.535 26.034,74.470 31.584 M97.486 36.307 C 109.150 37.865,119.526 41.499,128.903 47.310 C 167.022 70.929,164.809 114.890,124.425 136.264 C 119.184 139.037,119.429 138.398,120.199 147.281 C 120.550 151.336,120.805 154.693,120.764 154.739 C 120.724 154.786,116.885 152.503,112.235 149.665 C 102.234 143.563,103.286 143.919,97.415 144.649 C 52.214 150.267,12.903 125.083,12.903 90.507 C 12.903 61.798,39.856 38.996,77.788 35.615 C 81.166 35.314,93.227 35.737,97.486 36.307 M38.971 60.735 C 38.722 62.039,38.909 62.304,40.081 62.304 L 41.040 62.304 40.704 85.806 C 40.154 124.343,40.109 123.745,43.592 124.138 C 45.041 124.301,45.334 124.210,45.942 123.402 L 46.636 122.479 47.742 124.546 C 51.789 132.111,64.948 131.364,68.421 123.371 C 68.786 122.531,69.114 121.795,69.150 121.737 C 69.185 121.679,70.092 122.176,71.166 122.843 C 78.436 127.359,89.922 120.757,94.394 109.493 C 98.954 98.008,97.952 80.008,92.003 66.558 C 87.141 55.564,77.582 61.810,76.791 76.498 L 76.573 80.553 73.897 85.714 C 69.653 93.901,67.180 100.835,66.167 107.393 L 65.950 108.796 64.612 107.621 C 62.879 106.100,59.996 104.770,57.788 104.473 C 55.684 104.189,55.649 104.046,57.399 102.857 C 67.733 95.838,72.198 81.961,67.258 72.213 C 63.615 65.024,53.168 59.724,42.639 59.724 L 39.164 59.724 38.971 60.735 M115.207 61.094 C 111.676 61.952,108.018 69.788,108.018 76.496 L 108.018 79.903 104.587 86.680 C 93.323 108.927,95.163 125.043,108.866 124.164 C 123.338 123.235,131.836 102.600,127.131 79.816 C 124.278 66.005,120.355 59.844,115.207 61.094 M50.108 63.873 C 61.968 68.280,61.711 97.284,49.765 102.645 C 47.050 103.864,47.247 104.062,47.591 100.461 C 48.564 90.307,47.596 69.775,45.848 63.461 C 45.565 62.441,46.495 62.531,50.108 63.873 M88.142 64.608 C 92.062 68.686,91.915 92.613,87.891 105.519 C 85.233 114.044,81.168 118.937,78.304 117.060 C 74.539 114.594,74.806 102.926,78.947 88.942 L 79.738 86.271 81.335 87.744 C 83.748 89.968,86.036 89.656,83.906 87.393 C 79.878 83.112,79.305 77.378,82.215 70.449 C 84.561 64.861,86.525 62.926,88.142 64.608 M118.722 64.154 C 124.071 67.017,122.934 98.535,117.040 110.823 C 114.759 115.578,111.537 118.329,109.516 117.247 C 105.919 115.322,105.853 105.245,109.349 91.807 C 110.895 85.865,110.527 86.305,112.619 87.901 C 115.185 89.860,117.284 89.601,115.258 87.575 C 110.761 83.077,110.386 76.658,114.157 68.714 C 115.312 66.281,117.146 63.779,117.776 63.779 C 117.911 63.779,118.337 63.948,118.722 64.154 M219.613 88.713 C 219.485 88.841,218.008 89.166,216.331 89.434 C 214.654 89.703,212.948 90.082,212.540 90.276 C 212.131 90.471,210.968 90.819,209.954 91.050 C 203.210 92.586,192.824 98.168,184.553 104.700 C 179.224 108.910,171.335 117.190,167.189 122.925 C 166.783 123.486,165.995 124.531,165.438 125.249 C 164.880 125.966,164.424 126.684,164.424 126.845 C 164.424 127.005,164.208 127.355,163.944 127.623 C 163.680 127.891,162.434 129.770,161.175 131.797 C 159.916 133.825,158.723 135.733,158.524 136.037 C 156.923 138.486,150.864 150.605,150.361 152.362 C 150.117 153.217,149.806 154.083,149.670 154.286 C 149.534 154.488,149.206 155.484,148.940 156.498 C 148.674 157.512,148.332 158.507,148.179 158.710 C 148.026 158.912,147.542 160.488,147.103 162.212 C 146.664 163.935,145.884 167.005,145.370 169.032 C 144.271 173.367,142.886 180.439,142.119 185.622 C 141.820 187.650,141.365 190.719,141.110 192.442 C 140.464 196.794,140.462 226.261,141.107 229.862 C 141.361 231.281,141.803 234.018,142.088 235.945 C 142.942 241.703,145.351 252.779,146.338 255.484 C 146.523 255.991,147.299 258.396,148.063 260.829 C 148.826 263.263,149.567 265.336,149.710 265.438 C 149.853 265.539,150.169 266.369,150.413 267.281 C 150.656 268.194,151.151 269.604,151.512 270.415 C 151.872 271.226,153.043 273.880,154.113 276.313 C 156.875 282.592,161.927 292.142,165.328 297.512 C 166.817 299.862,170.504 305.435,170.694 305.622 C 170.797 305.724,171.543 306.807,172.353 308.031 C 184.763 326.783,200.125 340.300,218.065 348.251 C 222.415 350.179,222.966 350.399,225.991 351.425 C 231.121 353.165,233.582 353.864,236.705 354.468 C 238.416 354.798,240.147 355.210,240.553 355.382 C 245.613 357.529,285.910 357.660,292.903 355.552 C 293.309 355.430,295.963 354.937,298.802 354.457 C 307.254 353.028,312.407 352.068,312.995 351.813 C 313.300 351.680,315.124 351.201,317.051 350.747 C 321.913 349.601,331.072 347.098,332.350 346.565 C 332.756 346.396,335.327 345.540,338.065 344.662 C 340.802 343.785,343.456 342.854,343.963 342.595 C 344.470 342.336,345.103 342.123,345.369 342.122 C 345.636 342.121,346.631 341.808,347.581 341.426 C 348.531 341.044,351.051 340.119,353.180 339.369 C 355.309 338.619,357.548 337.789,358.157 337.523 C 358.765 337.258,359.677 336.919,360.184 336.771 C 360.691 336.623,361.770 336.209,362.581 335.852 C 363.392 335.494,365.300 334.672,366.820 334.024 C 368.341 333.376,370.272 332.535,371.111 332.155 C 371.951 331.774,373.071 331.354,373.600 331.222 C 374.129 331.089,374.562 330.865,374.562 330.725 C 374.562 330.585,375.184 330.251,375.945 329.982 C 377.379 329.476,380.306 328.214,382.857 327.002 C 383.668 326.617,385.991 325.535,388.018 324.597 C 390.046 323.660,392.742 322.374,394.009 321.739 L 396.313 320.586 396.313 318.811 C 396.313 316.640,396.123 316.539,390.992 315.964 C 388.978 315.739,387.153 315.415,386.937 315.245 C 386.721 315.075,385.631 314.727,384.516 314.472 C 382.440 313.997,380.974 313.419,376.774 311.420 C 374.338 310.261,373.950 310.031,370.691 307.816 C 365.419 304.232,355.760 293.093,355.760 290.598 C 355.760 290.379,355.628 290.144,355.466 290.077 C 355.053 289.904,352.074 283.696,352.074 283.007 C 352.074 282.695,351.910 282.339,351.710 282.215 C 351.510 282.091,351.081 281.078,350.757 279.962 C 350.432 278.847,349.934 277.487,349.648 276.940 C 349.363 276.392,349.128 275.670,349.127 275.335 C 349.125 274.999,348.715 273.514,348.214 272.035 C 347.714 270.555,347.195 268.590,347.061 267.667 C 346.928 266.745,346.723 265.828,346.606 265.629 C 346.490 265.429,346.357 265.015,346.311 264.707 C 346.002 262.618,345.021 257.248,344.713 255.959 C 344.509 255.105,344.093 251.207,343.788 247.296 C 343.483 243.384,343.066 238.341,342.861 236.088 C 342.656 233.835,342.488 225.843,342.488 218.329 C 342.488 205.246,342.100 195.900,341.360 191.152 C 341.170 189.935,340.770 187.198,340.470 185.069 C 339.596 178.861,336.843 167.143,335.650 164.553 C 335.356 163.914,335.115 163.133,335.115 162.819 C 335.115 162.239,334.827 161.446,333.588 158.622 C 333.212 157.762,332.903 156.921,332.903 156.753 C 332.903 155.780,326.633 142.896,325.136 140.794 C 324.744 140.244,324.424 139.697,324.424 139.578 C 324.424 139.459,323.677 138.272,322.765 136.939 C 321.853 135.606,321.106 134.434,321.106 134.334 C 321.106 134.066,315.665 127.264,313.936 125.370 C 304.043 114.537,293.570 106.852,279.064 99.779 C 277.130 98.836,275.386 98.065,275.188 98.065 C 274.990 98.065,274.238 97.748,273.516 97.362 C 272.795 96.975,271.470 96.448,270.573 96.191 C 269.675 95.934,268.774 95.609,268.571 95.468 C 268.369 95.328,267.290 94.927,266.175 94.579 C 265.060 94.230,263.625 93.710,262.986 93.424 C 262.347 93.137,261.648 92.903,261.432 92.903 C 261.216 92.903,260.246 92.630,259.276 92.297 C 256.959 91.500,252.435 90.413,248.227 89.640 C 246.365 89.299,244.719 88.898,244.571 88.749 C 244.242 88.420,219.941 88.384,219.613 88.713 M242.028 93.577 C 248.019 94.427,250.516 94.861,250.876 95.116 C 251.078 95.260,252.301 95.580,253.593 95.827 C 256.069 96.300,266.281 99.529,268.258 100.465 C 268.897 100.767,269.550 101.014,269.709 101.014 C 270.004 101.014,270.836 101.382,275.848 103.732 C 277.417 104.467,278.793 105.069,278.906 105.069 C 279.382 105.069,288.019 110.117,291.244 112.280 C 302.008 119.500,311.800 129.198,317.834 138.618 C 318.809 140.138,319.742 141.548,319.908 141.751 C 320.484 142.455,324.288 149.500,324.785 150.783 C 325.060 151.493,325.421 152.254,325.587 152.474 C 325.753 152.694,326.129 153.524,326.423 154.318 C 326.717 155.111,327.456 156.956,328.065 158.416 C 329.369 161.545,331.204 166.872,331.785 169.217 C 332.012 170.129,332.348 171.207,332.534 171.613 C 335.423 177.937,338.085 203.063,338.040 223.594 C 338.020 232.888,338.594 246.787,339.167 250.876 C 339.338 252.092,339.744 254.995,340.070 257.327 C 340.396 259.659,340.816 262.313,341.003 263.226 C 342.448 270.272,342.920 272.353,343.222 272.995 C 343.412 273.401,343.813 274.645,344.113 275.760 C 344.798 278.304,346.020 281.853,346.735 283.374 C 347.035 284.013,347.281 284.646,347.281 284.781 C 347.281 286.380,353.488 297.187,357.234 302.110 C 360.674 306.631,369.993 314.141,374.231 315.807 C 375.123 316.158,376.184 316.645,376.590 316.889 C 377.613 317.504,383.931 319.630,384.760 319.637 C 386.198 319.649,386.590 320.299,385.425 320.740 C 384.414 321.122,380.477 322.837,376.959 324.428 C 376.147 324.795,374.488 325.536,373.272 326.075 C 372.055 326.614,370.645 327.271,370.138 327.535 C 369.631 327.799,368.553 328.228,367.742 328.488 C 366.931 328.747,365.935 329.166,365.530 329.418 C 365.124 329.671,364.378 329.996,363.871 330.141 C 363.364 330.286,362.452 330.623,361.843 330.891 C 361.235 331.158,359.659 331.792,358.341 332.299 C 357.023 332.806,354.452 333.796,352.627 334.498 C 350.802 335.200,347.982 336.224,346.359 336.772 C 344.737 337.321,343.078 337.914,342.673 338.090 C 341.946 338.406,331.129 341.906,326.820 343.220 C 325.604 343.591,323.696 344.087,322.581 344.324 C 321.465 344.560,320.221 344.900,319.816 345.079 C 318.087 345.843,304.768 348.569,292.719 350.625 C 277.685 353.190,261.258 353.454,246.114 351.373 C 242.886 350.929,240.089 350.470,239.898 350.352 C 239.707 350.234,238.283 349.839,236.734 349.475 C 233.382 348.687,229.048 347.428,228.018 346.943 C 227.613 346.753,226.369 346.314,225.253 345.968 C 224.138 345.623,223.060 345.217,222.857 345.065 C 222.654 344.914,222.074 344.667,221.567 344.517 C 219.042 343.766,208.867 338.268,204.977 335.552 C 196.481 329.620,187.603 320.862,181.567 312.459 C 181.161 311.894,180.000 310.324,178.986 308.969 C 174.991 303.631,171.424 298.253,167.597 291.797 C 162.618 283.396,158.326 274.931,158.485 273.825 C 158.507 273.673,158.377 273.548,158.197 273.548 C 158.016 273.548,157.754 273.095,157.615 272.540 C 157.476 271.986,156.960 270.654,156.469 269.580 C 155.978 268.506,155.575 267.425,155.574 267.178 C 155.573 266.931,155.327 266.258,155.027 265.684 C 154.426 264.531,152.491 259.021,151.654 256.079 C 148.863 246.261,147.481 240.057,146.516 232.995 C 145.390 224.765,145.284 223.517,145.035 215.484 C 144.780 207.265,145.281 194.978,146.006 191.705 C 146.208 190.793,146.689 187.889,147.075 185.253 C 149.862 166.222,155.490 149.711,163.476 137.143 C 163.927 136.433,164.766 135.106,165.341 134.194 C 172.705 122.503,183.191 111.121,192.074 105.177 C 196.829 101.995,204.270 98.067,206.658 97.478 C 207.254 97.331,208.074 96.999,208.479 96.740 C 208.885 96.481,210.295 96.003,211.613 95.677 C 212.931 95.350,214.590 94.927,215.300 94.736 C 216.009 94.545,218.487 94.135,220.805 93.824 C 223.124 93.513,225.110 93.169,225.220 93.060 C 225.557 92.722,238.899 93.133,242.028 93.577 M54.703 107.666 C 61.858 109.885,63.431 117.455,57.994 123.503 C 54.098 127.836,50.795 127.871,48.871 123.600 C 48.345 122.431,47.703 121.060,47.445 120.553 C 47.099 119.874,47.015 117.900,47.125 113.044 L 47.274 106.457 49.861 106.712 C 51.284 106.852,53.463 107.281,54.703 107.666 M274.839 168.498 C 269.870 169.718,264.812 173.852,262.355 178.702 C 253.210 196.749,277.139 214.354,292.077 200.569 C 306.237 187.502,293.552 163.903,274.839 168.498 M185.438 170.118 C 167.441 174.297,166.062 200.006,183.455 207.079 C 188.199 209.009,197.145 208.282,200.301 205.711 C 204.859 201.998,207.621 198.877,208.119 196.880 C 208.247 196.366,208.629 195.364,208.969 194.654 C 209.978 192.542,209.838 185.178,208.734 182.287 C 205.155 172.918,195.377 167.810,185.438 170.118 M227.300 207.692 C 226.174 208.735,226.091 210.115,226.946 213.519 C 229.617 224.150,242.362 227.799,250.336 220.215 C 254.613 216.147,255.860 208.295,252.228 208.295 C 250.689 208.295,250.164 208.957,249.449 211.797 C 248.177 216.854,245.758 219.070,241.262 219.297 C 237.121 219.506,233.799 217.801,232.606 214.854 C 232.336 214.186,231.986 213.551,231.828 213.440 C 231.670 213.330,231.428 212.037,231.292 210.566 C 230.950 206.891,229.383 205.762,227.300 207.692 " stroke="none" fill="#000000" fill-rule="evenodd"></path></g></svg>