<svg id="svg" version="1.1" width="400" height="250" viewBox="0 0 400 250" xmlns="http://www.w3.org/2000/svg" xmlns:xlink="http://www.w3.org/1999/xlink" ><g id="svgg"><path id="path0" d="M97.813 39.920 C 97.228 39.980,96.750 40.122,96.750 40.236 C 96.750 40.349,96.133 40.519,95.379 40.614 C 94.625 40.708,93.943 40.890,93.864 41.017 C 93.785 41.145,93.446 41.250,93.110 41.250 C 92.775 41.250,92.500 41.361,92.500 41.497 C 92.500 41.633,92.050 41.816,91.500 41.904 C 90.950 41.992,90.500 42.153,90.500 42.262 C 90.500 42.371,90.162 42.534,89.750 42.625 C 89.338 42.716,89.000 42.884,89.000 43.000 C 89.000 43.116,88.670 43.283,88.267 43.371 C 87.864 43.460,87.401 43.694,87.237 43.891 C 87.073 44.088,86.784 44.250,86.594 44.250 C 86.405 44.250,86.250 44.362,86.250 44.500 C 86.250 44.638,86.091 44.750,85.896 44.750 C 85.701 44.750,85.504 44.839,85.458 44.948 C 85.412 45.057,84.953 45.404,84.438 45.719 C 83.922 46.033,83.500 46.394,83.500 46.520 C 83.500 46.647,83.359 46.750,83.188 46.750 C 82.795 46.751,78.579 50.824,77.755 52.000 C 77.418 52.481,76.997 53.024,76.821 53.205 C 76.644 53.387,76.500 53.634,76.500 53.755 C 76.500 53.876,76.219 54.278,75.875 54.649 C 75.531 55.020,75.250 55.475,75.250 55.662 C 75.250 55.848,75.140 56.000,75.005 56.000 C 74.870 56.000,74.689 56.281,74.603 56.625 C 74.516 56.969,74.354 57.250,74.243 57.250 C 74.131 57.250,73.966 57.587,73.875 58.000 C 73.784 58.413,73.617 58.750,73.502 58.750 C 73.388 58.750,73.218 59.200,73.125 59.750 C 73.032 60.300,72.853 60.750,72.728 60.750 C 72.603 60.750,72.500 60.906,72.500 61.096 C 72.500 61.287,72.332 61.765,72.127 62.159 C 71.921 62.553,71.752 63.184,71.752 63.563 C 71.751 63.941,71.644 64.250,71.515 64.250 C 71.386 64.250,71.202 65.040,71.107 66.006 C 71.012 66.971,70.837 67.821,70.717 67.895 C 70.598 67.969,70.500 70.379,70.500 73.250 C 70.500 76.121,70.598 78.531,70.717 78.605 C 70.837 78.679,71.012 79.529,71.107 80.494 C 71.202 81.460,71.386 82.250,71.515 82.250 C 71.644 82.250,71.751 82.559,71.752 82.938 C 71.752 83.316,71.921 83.947,72.127 84.341 C 72.332 84.735,72.500 85.213,72.500 85.404 C 72.500 85.594,72.603 85.750,72.728 85.750 C 72.853 85.750,73.032 86.200,73.125 86.750 C 73.218 87.300,73.388 87.750,73.502 87.750 C 73.617 87.750,73.784 88.088,73.875 88.500 C 73.966 88.912,74.143 89.250,74.270 89.250 C 74.396 89.250,74.500 89.411,74.500 89.607 C 74.500 89.804,74.641 90.115,74.813 90.299 C 74.984 90.483,75.344 91.026,75.611 91.505 C 75.878 91.983,76.216 92.512,76.361 92.679 C 76.819 93.206,77.121 93.600,77.753 94.496 C 78.090 94.974,79.353 96.340,80.558 97.531 C 82.607 99.554,83.104 100.250,82.500 100.250 C 82.362 100.250,82.250 100.419,82.250 100.625 C 82.250 100.831,82.140 101.000,82.005 101.000 C 81.870 101.000,81.689 101.281,81.603 101.625 C 81.516 101.969,81.345 102.250,81.223 102.250 C 81.100 102.250,81.000 102.405,81.000 102.594 C 81.000 102.784,80.838 103.073,80.641 103.237 C 80.444 103.401,80.210 103.864,80.121 104.267 C 80.033 104.670,79.869 105.000,79.757 105.000 C 79.646 105.000,79.481 105.291,79.392 105.646 C 79.303 106.002,79.015 106.523,78.752 106.805 C 78.490 107.087,78.204 107.640,78.118 108.034 C 78.031 108.428,77.862 108.750,77.741 108.750 C 77.621 108.750,77.449 109.144,77.359 109.625 C 77.268 110.106,77.094 110.500,76.972 110.500 C 76.850 110.500,76.747 110.641,76.744 110.813 C 76.741 110.984,76.406 111.800,76.000 112.625 C 75.594 113.450,75.259 114.315,75.256 114.548 C 75.253 114.780,75.147 115.034,75.022 115.112 C 74.896 115.189,74.718 115.701,74.625 116.250 C 74.532 116.799,74.360 117.307,74.243 117.380 C 74.125 117.452,73.953 118.015,73.861 118.631 C 73.769 119.246,73.602 119.750,73.490 119.750 C 73.378 119.750,73.209 120.369,73.114 121.125 C 73.020 121.881,72.843 122.500,72.721 122.500 C 72.600 122.500,72.500 122.831,72.500 123.235 C 72.500 123.640,72.401 124.032,72.279 124.107 C 72.158 124.182,71.978 125.004,71.880 125.934 C 71.781 126.864,71.604 127.743,71.487 127.887 C 71.369 128.031,71.194 129.353,71.099 130.825 C 71.004 132.296,70.830 133.500,70.713 133.500 C 70.596 133.500,70.500 136.875,70.500 141.000 C 70.500 145.125,70.596 148.500,70.713 148.500 C 70.830 148.500,71.004 149.704,71.099 151.175 C 71.194 152.647,71.366 153.969,71.481 154.113 C 71.595 154.257,71.768 155.133,71.864 156.060 C 71.960 156.987,72.143 157.809,72.270 157.887 C 72.396 157.965,72.500 158.360,72.500 158.765 C 72.500 159.169,72.600 159.500,72.721 159.500 C 72.843 159.500,73.020 160.119,73.114 160.875 C 73.209 161.631,73.380 162.250,73.495 162.250 C 73.609 162.250,73.780 162.812,73.875 163.500 C 73.970 164.188,74.142 164.750,74.258 164.750 C 74.374 164.750,74.545 165.256,74.638 165.875 C 74.731 166.494,74.906 167.000,75.028 167.000 C 75.150 167.000,75.251 167.197,75.252 167.438 C 75.252 167.678,75.421 168.197,75.627 168.591 C 75.832 168.985,76.000 169.463,76.000 169.654 C 76.000 169.844,76.107 170.000,76.239 170.000 C 76.370 170.000,76.551 170.394,76.641 170.875 C 76.732 171.356,76.897 171.750,77.008 171.750 C 77.119 171.750,77.284 172.088,77.375 172.500 C 77.466 172.913,77.634 173.250,77.750 173.250 C 77.866 173.250,78.031 173.572,78.118 173.966 C 78.204 174.360,78.494 174.918,78.762 175.206 C 79.031 175.494,79.250 175.797,79.250 175.881 C 79.250 176.388,81.682 180.819,82.037 180.958 C 82.154 181.004,82.250 181.201,82.250 181.396 C 82.250 181.591,82.355 181.750,82.483 181.750 C 82.611 181.750,82.795 181.998,82.891 182.301 C 82.987 182.604,83.220 183.006,83.408 183.194 C 83.596 183.382,83.750 183.684,83.750 183.866 C 83.750 184.048,83.919 184.261,84.125 184.340 C 84.331 184.420,84.500 184.632,84.500 184.812 C 84.500 184.992,84.725 185.302,85.000 185.500 C 85.275 185.698,85.500 185.980,85.500 186.126 C 85.500 186.391,86.136 187.215,87.686 188.961 C 88.133 189.464,88.498 189.945,88.499 190.031 C 88.503 190.628,99.256 201.343,100.768 202.256 C 100.964 202.375,101.463 202.762,101.875 203.117 C 103.941 204.895,104.400 205.242,104.688 205.246 C 104.859 205.248,105.000 205.353,105.000 205.480 C 105.000 205.606,105.422 205.967,105.937 206.281 C 106.453 206.596,106.912 206.943,106.958 207.052 C 107.004 207.161,107.205 207.250,107.404 207.250 C 107.603 207.250,107.830 207.419,107.910 207.625 C 107.989 207.831,108.210 208.000,108.402 208.000 C 108.593 208.000,108.750 208.105,108.750 208.233 C 108.750 208.361,108.998 208.545,109.301 208.641 C 109.604 208.737,110.006 208.970,110.194 209.158 C 110.382 209.346,110.684 209.500,110.866 209.500 C 111.048 209.500,111.261 209.669,111.340 209.875 C 111.420 210.081,111.657 210.250,111.867 210.250 C 112.078 210.250,112.250 210.349,112.250 210.471 C 112.250 210.592,112.447 210.758,112.688 210.839 C 113.162 210.998,114.049 211.532,114.250 211.779 C 114.319 211.863,114.651 212.019,114.988 212.124 C 115.326 212.230,115.756 212.470,115.944 212.658 C 116.132 212.846,116.446 213.000,116.643 213.000 C 116.839 213.000,117.000 213.104,117.000 213.230 C 117.000 213.357,117.338 213.534,117.750 213.625 C 118.162 213.716,118.500 213.867,118.500 213.961 C 118.500 214.147,120.348 215.000,120.752 215.000 C 120.888 215.000,121.000 215.104,121.000 215.230 C 121.000 215.357,121.338 215.534,121.750 215.625 C 122.162 215.716,122.500 215.893,122.500 216.020 C 122.500 216.146,122.625 216.250,122.777 216.250 C 123.020 216.250,125.715 217.421,126.758 217.981 C 126.969 218.094,127.503 218.266,127.946 218.363 C 128.388 218.460,128.750 218.629,128.750 218.738 C 128.750 218.847,129.200 219.008,129.750 219.096 C 130.300 219.184,130.750 219.360,130.750 219.488 C 130.750 219.615,131.256 219.795,131.875 219.888 C 132.494 219.981,133.000 220.156,133.000 220.278 C 133.000 220.400,133.281 220.500,133.625 220.500 C 133.969 220.500,134.250 220.600,134.250 220.722 C 134.250 220.844,134.756 221.019,135.375 221.112 C 135.994 221.205,136.500 221.376,136.500 221.492 C 136.500 221.608,137.062 221.780,137.750 221.875 C 138.437 221.969,139.058 222.141,139.129 222.256 C 139.200 222.371,139.875 222.542,140.629 222.636 C 141.383 222.731,142.000 222.907,142.000 223.029 C 142.000 223.150,142.331 223.250,142.735 223.250 C 143.140 223.250,143.533 223.351,143.610 223.475 C 143.686 223.599,144.425 223.779,145.250 223.875 C 146.075 223.971,146.808 224.141,146.877 224.253 C 146.947 224.366,147.846 224.537,148.877 224.633 C 149.907 224.730,150.750 224.898,150.750 225.006 C 150.750 225.115,151.847 225.285,153.188 225.384 C 154.528 225.483,155.683 225.655,155.754 225.765 C 155.826 225.876,157.429 226.047,159.317 226.145 C 161.205 226.243,162.750 226.419,162.750 226.536 C 162.750 226.654,167.194 226.750,172.625 226.750 C 178.056 226.750,182.500 226.654,182.500 226.536 C 182.500 226.419,184.044 226.243,185.932 226.145 C 187.820 226.047,189.479 225.874,189.619 225.761 C 189.760 225.648,190.916 225.475,192.189 225.376 C 193.462 225.277,194.557 225.110,194.623 225.003 C 194.689 224.897,195.588 224.730,196.621 224.633 C 197.655 224.537,198.500 224.368,198.500 224.258 C 198.500 224.148,199.230 223.980,200.122 223.885 C 201.015 223.789,201.809 223.607,201.887 223.480 C 201.965 223.354,202.304 223.250,202.640 223.250 C 202.975 223.250,203.250 223.149,203.250 223.025 C 203.250 222.901,203.925 222.721,204.750 222.625 C 205.575 222.529,206.250 222.360,206.250 222.249 C 206.250 222.138,206.813 221.970,207.500 221.875 C 208.188 221.780,208.750 221.614,208.750 221.505 C 208.750 221.396,209.254 221.231,209.869 221.139 C 210.485 221.047,211.054 220.865,211.134 220.736 C 211.214 220.606,211.498 220.500,211.765 220.500 C 212.032 220.500,212.250 220.400,212.250 220.278 C 212.250 220.156,212.756 219.981,213.375 219.888 C 213.994 219.795,214.500 219.624,214.500 219.507 C 214.500 219.390,214.950 219.218,215.500 219.125 C 216.050 219.032,216.500 218.853,216.500 218.728 C 216.500 218.603,216.675 218.500,216.889 218.500 C 217.259 218.500,219.133 217.756,220.059 217.241 C 220.298 217.109,220.663 217.000,220.872 217.000 C 221.080 217.000,221.250 216.896,221.250 216.770 C 221.250 216.643,221.588 216.466,222.000 216.375 C 222.412 216.284,222.750 216.119,222.750 216.008 C 222.750 215.897,223.144 215.732,223.625 215.641 C 224.106 215.551,224.500 215.379,224.500 215.259 C 224.500 215.138,224.838 214.966,225.250 214.875 C 225.662 214.784,226.000 214.607,226.000 214.480 C 226.000 214.354,226.169 214.250,226.375 214.250 C 226.581 214.250,226.750 214.150,226.750 214.027 C 226.750 213.905,227.058 213.727,227.435 213.632 C 227.812 213.538,228.177 213.385,228.247 213.293 C 228.318 213.200,228.938 212.844,229.625 212.500 C 230.313 212.156,230.931 211.806,231.000 211.721 C 231.069 211.637,231.378 211.488,231.688 211.392 C 231.997 211.295,232.250 211.111,232.250 210.983 C 232.250 210.855,232.419 210.750,232.625 210.750 C 232.831 210.750,233.000 210.650,233.000 210.527 C 233.000 210.405,233.281 210.234,233.625 210.147 C 233.969 210.061,234.250 209.880,234.250 209.745 C 234.250 209.610,234.422 209.500,234.633 209.500 C 234.843 209.500,235.077 209.341,235.151 209.148 C 235.225 208.954,235.559 208.727,235.893 208.643 C 236.227 208.559,236.500 208.380,236.500 208.245 C 236.500 208.110,236.669 208.000,236.875 208.000 C 237.081 208.000,237.250 207.890,237.250 207.755 C 237.250 207.620,237.531 207.439,237.875 207.353 C 238.219 207.266,238.500 207.105,238.500 206.993 C 238.500 206.882,238.922 206.532,239.438 206.216 C 240.502 205.563,240.781 205.352,241.626 204.563 C 241.957 204.253,242.317 203.997,242.426 203.994 C 242.536 203.991,243.075 203.590,243.625 203.104 C 244.175 202.617,245.236 201.691,245.982 201.047 C 246.729 200.402,247.789 199.481,248.340 199.000 C 249.914 197.623,253.965 193.512,254.704 192.542 C 255.073 192.058,255.797 191.223,256.313 190.686 C 256.828 190.149,257.250 189.623,257.250 189.517 C 257.250 189.411,257.559 188.983,257.938 188.565 C 259.225 187.143,259.811 186.389,260.071 185.819 C 260.214 185.506,260.425 185.250,260.540 185.250 C 260.656 185.250,260.750 185.081,260.750 184.875 C 260.750 184.669,260.865 184.500,261.006 184.500 C 261.147 184.500,261.372 184.247,261.506 183.938 C 261.800 183.257,262.265 182.516,262.688 182.055 C 262.859 181.868,263.000 181.566,263.000 181.384 C 263.000 181.202,263.169 180.989,263.375 180.910 C 263.581 180.830,263.750 180.593,263.750 180.383 C 263.750 180.172,263.863 180.000,264.000 180.000 C 264.137 180.000,264.250 179.775,264.250 179.500 C 264.250 179.225,264.351 179.000,264.475 179.000 C 264.749 179.000,265.750 177.129,265.750 176.617 C 265.750 176.415,265.863 176.250,266.000 176.250 C 266.137 176.250,266.250 176.107,266.250 175.933 C 266.250 175.759,266.525 175.211,266.862 174.715 C 267.199 174.220,267.549 173.519,267.639 173.157 C 267.730 172.796,267.905 172.500,268.027 172.500 C 268.150 172.500,268.254 172.359,268.258 172.188 C 268.263 172.016,268.484 171.425,268.750 170.875 C 269.016 170.325,269.237 169.678,269.242 169.438 C 269.246 169.197,269.353 169.000,269.478 169.000 C 269.603 169.000,269.782 168.550,269.875 168.000 C 269.968 167.450,270.147 167.000,270.272 167.000 C 270.397 167.000,270.500 166.719,270.500 166.375 C 270.500 166.031,270.606 165.750,270.735 165.750 C 270.864 165.750,271.045 165.244,271.138 164.625 C 271.231 164.006,271.396 163.500,271.505 163.500 C 271.614 163.500,271.780 162.938,271.875 162.250 C 271.970 161.563,272.138 161.000,272.249 161.000 C 272.360 161.000,272.529 160.325,272.625 159.500 C 272.721 158.675,272.901 158.000,273.025 158.000 C 273.149 158.000,273.250 157.613,273.250 157.140 C 273.250 156.667,273.351 156.217,273.474 156.141 C 273.597 156.065,273.779 155.074,273.879 153.939 C 273.978 152.804,274.187 151.795,274.342 151.697 C 274.745 151.443,274.743 130.972,274.340 130.476 C 274.184 130.283,273.975 129.196,273.877 128.061 C 273.778 126.926,273.597 125.935,273.474 125.859 C 273.351 125.783,273.250 125.333,273.250 124.860 C 273.250 124.387,273.149 124.000,273.025 124.000 C 272.901 124.000,272.721 123.325,272.625 122.500 C 272.529 121.675,272.360 121.000,272.249 121.000 C 272.138 121.000,271.970 120.438,271.875 119.750 C 271.780 119.063,271.608 118.500,271.492 118.500 C 271.376 118.500,271.205 117.994,271.112 117.375 C 271.019 116.756,270.844 116.250,270.722 116.250 C 270.600 116.250,270.500 115.969,270.500 115.625 C 270.500 115.281,270.387 115.000,270.250 115.000 C 270.113 115.000,269.999 114.803,269.998 114.563 C 269.998 114.322,269.839 113.823,269.647 113.454 C 269.455 113.085,269.221 112.439,269.129 112.017 C 269.036 111.595,268.862 111.250,268.741 111.250 C 268.621 111.250,268.449 110.856,268.359 110.375 C 268.268 109.894,268.103 109.500,267.992 109.500 C 267.881 109.500,267.716 109.163,267.625 108.750 C 267.534 108.338,267.382 108.000,267.286 108.000 C 267.190 108.000,266.890 107.495,266.619 106.877 C 266.347 106.260,266.050 105.754,265.957 105.752 C 265.865 105.751,265.716 105.412,265.625 105.000 C 265.534 104.588,265.369 104.250,265.257 104.250 C 265.146 104.250,264.984 103.969,264.897 103.625 C 264.811 103.281,264.630 103.000,264.495 103.000 C 264.360 103.000,264.250 102.831,264.250 102.625 C 264.250 102.419,264.137 102.250,264.000 102.250 C 263.863 102.250,263.750 102.089,263.750 101.893 C 263.750 101.696,263.607 101.387,263.433 101.205 C 262.359 100.085,262.464 99.802,264.860 97.384 C 267.255 94.967,267.866 94.277,268.545 93.222 C 268.776 92.864,269.114 92.409,269.295 92.211 C 269.604 91.875,269.836 91.483,270.938 89.438 C 271.178 88.991,271.456 88.589,271.555 88.544 C 271.653 88.500,271.807 88.078,271.895 87.607 C 271.983 87.136,272.156 86.750,272.278 86.750 C 272.400 86.750,272.500 86.570,272.500 86.350 C 272.500 86.130,272.661 85.596,272.858 85.163 C 273.428 83.910,274.000 82.032,274.000 81.416 C 274.000 81.105,274.141 80.709,274.313 80.537 C 274.548 80.302,274.625 78.497,274.625 73.250 C 274.625 68.003,274.548 66.198,274.313 65.963 C 274.141 65.791,274.000 65.395,274.000 65.084 C 274.000 64.468,273.428 62.590,272.858 61.337 C 272.661 60.904,272.500 60.370,272.500 60.150 C 272.500 59.930,272.400 59.750,272.278 59.750 C 272.156 59.750,271.983 59.364,271.895 58.893 C 271.807 58.422,271.653 58.000,271.555 57.956 C 271.456 57.911,271.178 57.509,270.938 57.063 C 270.697 56.616,270.303 55.884,270.063 55.438 C 269.822 54.991,269.545 54.589,269.447 54.545 C 269.349 54.501,269.014 54.051,268.702 53.545 C 267.742 51.987,263.405 47.425,262.006 46.500 C 261.694 46.294,261.292 45.984,261.112 45.813 C 260.933 45.641,260.671 45.500,260.530 45.500 C 260.390 45.500,260.185 45.359,260.075 45.188 C 259.856 44.845,258.272 43.879,257.188 43.427 C 256.809 43.269,256.500 43.058,256.500 42.957 C 256.500 42.855,256.106 42.699,255.625 42.609 C 255.144 42.518,254.750 42.354,254.750 42.244 C 254.750 42.134,254.300 41.968,253.750 41.875 C 253.200 41.782,252.750 41.628,252.750 41.533 C 252.750 41.322,250.044 40.500,249.350 40.500 C 249.075 40.500,248.709 40.359,248.538 40.188 C 248.115 39.765,234.501 39.736,233.976 40.156 C 233.783 40.310,233.074 40.517,232.401 40.614 C 231.727 40.712,230.996 40.885,230.776 41.000 C 229.786 41.514,228.517 42.000,228.164 42.000 C 227.953 42.000,227.715 42.104,227.637 42.231 C 227.558 42.358,227.158 42.535,226.747 42.626 C 226.336 42.716,225.998 42.865,225.995 42.957 C 225.992 43.050,225.376 43.406,224.625 43.750 C 223.874 44.094,223.258 44.459,223.255 44.563 C 223.252 44.666,223.081 44.750,222.875 44.750 C 222.669 44.750,222.500 44.845,222.500 44.962 C 222.500 45.078,222.288 45.275,222.028 45.399 C 220.855 45.961,215.369 51.117,214.500 52.475 C 214.294 52.798,213.984 53.208,213.813 53.388 C 213.641 53.567,213.500 53.823,213.500 53.955 C 213.500 54.088,213.331 54.261,213.125 54.340 C 212.919 54.420,212.750 54.657,212.750 54.867 C 212.750 55.078,212.650 55.250,212.527 55.250 C 212.405 55.250,212.234 55.531,212.147 55.875 C 212.061 56.219,211.889 56.500,211.765 56.500 C 211.641 56.500,211.466 56.837,211.375 57.250 C 211.284 57.663,211.116 58.000,211.000 58.000 C 210.884 58.000,210.716 58.336,210.626 58.747 C 210.535 59.158,210.358 59.558,210.231 59.637 C 210.104 59.715,210.000 60.011,210.000 60.293 C 210.000 60.837,207.743 60.777,207.542 60.228 C 207.496 60.102,207.193 60.000,206.869 60.000 C 206.545 60.000,206.215 59.895,206.136 59.767 C 206.057 59.640,205.375 59.458,204.621 59.364 C 203.867 59.269,203.250 59.104,203.250 58.996 C 203.250 58.888,202.575 58.721,201.750 58.625 C 200.925 58.529,200.250 58.361,200.250 58.251 C 200.250 58.141,199.463 57.972,198.500 57.875 C 197.537 57.778,196.750 57.610,196.750 57.500 C 196.750 57.390,196.272 57.236,195.688 57.156 C 195.103 57.077,193.556 56.869,192.250 56.694 C 190.944 56.518,189.757 56.298,189.613 56.204 C 189.469 56.110,187.809 55.953,185.925 55.855 C 184.041 55.757,182.500 55.581,182.500 55.464 C 182.500 55.185,163.070 55.184,162.898 55.463 C 162.825 55.580,161.217 55.757,159.325 55.855 C 157.432 55.953,155.826 56.122,155.754 56.231 C 155.683 56.339,154.613 56.508,153.375 56.605 C 152.137 56.703,151.018 56.888,150.888 57.016 C 150.757 57.145,150.223 57.250,149.700 57.250 C 149.178 57.250,148.750 57.348,148.750 57.468 C 148.750 57.587,147.963 57.763,147.000 57.858 C 146.037 57.953,145.250 58.123,145.250 58.236 C 145.250 58.349,144.519 58.520,143.625 58.616 C 142.731 58.711,142.000 58.880,142.000 58.991 C 142.000 59.102,141.383 59.269,140.629 59.364 C 139.875 59.458,139.193 59.640,139.114 59.767 C 139.035 59.895,138.705 60.000,138.381 60.000 C 138.057 60.000,137.754 60.102,137.708 60.228 C 137.521 60.738,135.251 60.842,135.242 60.341 C 135.237 60.085,135.016 59.425,134.750 58.875 C 134.484 58.325,134.263 57.734,134.258 57.563 C 134.254 57.391,134.164 57.250,134.059 57.250 C 133.868 57.250,133.417 56.509,133.107 55.688 C 133.016 55.447,132.842 55.250,132.721 55.250 C 132.599 55.250,132.500 55.078,132.500 54.867 C 132.500 54.657,132.331 54.420,132.125 54.340 C 131.919 54.261,131.750 54.048,131.750 53.866 C 131.750 53.684,131.608 53.387,131.434 53.205 C 131.260 53.024,130.726 52.372,130.246 51.758 C 129.767 51.144,128.756 50.047,128.000 49.322 C 127.244 48.596,126.343 47.721,125.997 47.376 C 125.652 47.032,125.230 46.750,125.060 46.750 C 124.889 46.750,124.750 46.647,124.750 46.520 C 124.750 46.394,124.328 46.033,123.813 45.719 C 123.297 45.404,122.838 45.057,122.792 44.948 C 122.746 44.839,122.549 44.750,122.354 44.750 C 122.159 44.750,122.000 44.650,122.000 44.527 C 122.000 44.405,121.719 44.234,121.375 44.147 C 121.031 44.061,120.750 43.889,120.750 43.765 C 120.750 43.641,120.412 43.466,120.000 43.375 C 119.588 43.284,119.250 43.116,119.250 43.000 C 119.250 42.884,118.912 42.716,118.500 42.625 C 118.088 42.534,117.750 42.371,117.750 42.262 C 117.750 42.153,117.300 41.992,116.750 41.904 C 116.200 41.816,115.750 41.633,115.750 41.497 C 115.750 41.361,115.475 41.250,115.140 41.250 C 114.804 41.250,114.466 41.148,114.389 41.023 C 114.312 40.899,113.659 40.716,112.937 40.618 C 112.215 40.520,111.546 40.314,111.448 40.160 C 111.271 39.879,100.121 39.682,97.813 39.920 M185.375 59.483 C 186.475 59.644,188.613 59.947,190.125 60.155 C 193.503 60.621,199.222 61.720,201.125 62.268 C 201.537 62.386,202.550 62.671,203.375 62.899 C 205.292 63.430,209.473 64.727,210.125 64.993 C 210.400 65.105,211.188 65.391,211.875 65.629 C 215.602 66.915,223.746 70.636,227.500 72.767 C 245.390 82.923,257.534 95.898,265.507 113.375 C 267.326 117.363,268.954 122.737,270.227 128.956 C 271.109 133.263,271.407 143.250,270.818 148.707 C 268.041 174.393,250.233 197.945,223.375 211.451 C 220.603 212.844,216.952 214.500,216.650 214.500 C 216.485 214.500,216.243 214.594,216.112 214.709 C 215.982 214.823,215.313 215.119,214.625 215.365 C 213.938 215.612,213.037 215.962,212.625 216.144 C 211.739 216.535,206.517 218.264,204.375 218.876 C 203.550 219.112,202.369 219.449,201.750 219.625 C 201.131 219.802,199.725 220.134,198.625 220.363 C 197.525 220.592,196.175 220.887,195.625 221.018 C 195.075 221.149,193.838 221.373,192.875 221.516 C 169.506 224.987,147.409 222.643,129.125 214.752 C 128.575 214.515,127.506 214.052,126.750 213.724 C 115.688 208.919,105.462 201.986,97.119 193.635 C 94.011 190.524,93.038 189.460,90.492 186.389 C 89.226 184.861,86.329 180.789,85.379 179.201 C 82.967 175.170,79.974 169.354,79.165 167.125 C 78.965 166.575,78.474 165.225,78.073 164.125 C 76.730 160.439,75.421 155.404,74.985 152.250 C 74.370 147.799,74.277 146.331,74.279 141.125 C 74.284 130.512,75.467 124.298,79.302 114.750 C 80.356 112.127,82.654 107.422,83.793 105.558 C 84.319 104.696,84.750 103.940,84.750 103.877 C 84.750 103.339,90.103 96.014,92.607 93.125 C 98.950 85.807,108.498 77.944,116.125 73.757 C 116.950 73.304,117.737 72.848,117.875 72.742 C 118.232 72.469,124.320 69.421,126.250 68.549 C 127.761 67.867,128.583 67.522,131.688 66.271 C 135.039 64.921,143.242 62.403,146.375 61.763 C 153.213 60.367,158.626 59.552,163.750 59.147 C 166.346 58.941,183.502 59.208,185.375 59.483 M127.250 91.641 C 126.906 91.699,125.838 91.871,124.875 92.021 C 104.998 95.137,92.396 115.857,98.660 135.125 C 104.355 152.642,123.486 162.218,141.000 156.319 C 162.434 149.099,170.473 122.426,156.618 104.500 C 153.875 100.951,146.677 95.000,145.126 95.000 C 145.056 95.000,144.412 94.718,143.696 94.372 C 142.434 93.763,142.021 93.618,139.375 92.852 C 136.011 91.877,129.617 91.239,127.250 91.641 M213.000 92.157 C 193.848 94.592,180.479 113.088,184.381 131.750 C 188.737 152.579,211.653 164.454,230.444 155.620 C 231.170 155.279,231.819 155.000,231.886 155.000 C 232.670 155.000,238.339 150.898,240.521 148.752 C 256.744 132.794,251.805 104.596,231.125 95.117 C 228.096 93.728,227.710 93.597,223.750 92.613 C 222.148 92.214,214.947 91.909,213.000 92.157 M138.672 106.894 C 152.627 110.124,153.608 128.519,140.125 134.145 C 138.806 134.696,134.341 134.908,132.430 134.511 C 124.791 132.926,119.691 124.296,121.966 116.806 C 124.174 109.535,131.444 105.221,138.672 106.894 M229.447 108.953 C 245.691 115.229,238.504 140.031,221.580 136.105 C 206.976 132.719,206.826 112.474,221.375 108.479 C 222.799 108.087,227.997 108.393,229.447 108.953 M129.017 134.602 C 136.615 136.908,137.988 146.904,131.284 151.108 C 125.141 154.961,117.151 150.198,117.544 142.919 C 117.858 137.112,123.592 132.955,129.017 134.602 M213.143 134.668 C 221.861 137.626,221.736 149.538,212.960 152.089 C 207.235 153.754,201.500 149.393,201.500 143.375 C 201.500 137.336,207.588 132.783,213.143 134.668 M169.750 162.224 C 161.152 164.200,160.816 172.110,169.250 173.998 C 171.815 174.573,171.662 174.367,171.604 177.181 C 171.478 183.307,166.673 186.323,163.048 182.550 C 162.128 181.592,160.500 178.609,160.500 177.880 C 160.500 177.645,160.270 177.500,159.898 177.500 C 159.192 177.500,159.423 178.877,160.517 181.186 C 163.384 187.239,168.308 187.881,171.401 182.604 C 172.121 181.375,172.620 181.199,172.845 182.095 C 173.060 182.951,175.154 185.191,176.274 185.762 C 179.681 187.500,183.678 184.068,185.094 178.188 C 185.288 177.381,184.353 177.149,184.086 177.938 C 182.221 183.447,178.396 185.711,175.450 183.050 C 173.471 181.262,173.224 180.615,173.304 177.431 L 173.375 174.628 174.875 174.350 C 177.401 173.883,178.376 173.536,179.804 172.595 C 186.981 167.869,179.367 160.014,169.750 162.224 " stroke="none" fill="#000000" fill-rule="evenodd"></path><path id="path1" d="M164.500 59.386 C 161.956 59.563,159.088 59.823,158.125 59.964 C 157.162 60.105,155.813 60.288,155.125 60.371 C 153.854 60.524,153.298 60.624,148.875 61.503 C 127.349 65.780,106.936 77.223,93.357 92.625 C 86.050 100.913,81.077 109.577,77.478 120.292 C 73.258 132.850,73.376 150.384,77.761 162.664 C 84.111 180.443,94.938 194.084,111.500 205.168 C 116.025 208.196,125.168 213.046,128.875 214.385 C 129.563 214.633,130.238 214.910,130.375 215.001 C 131.658 215.845,142.924 219.365,147.250 220.273 C 166.111 224.235,184.291 223.797,203.500 218.921 C 236.840 210.458,264.702 183.091,269.851 153.750 C 270.763 148.551,270.870 147.212,270.870 141.000 C 270.870 134.752,270.773 133.563,269.828 128.250 C 266.921 111.909,256.853 95.395,242.457 83.356 C 239.948 81.257,239.303 80.753,236.500 78.697 C 231.069 74.714,222.929 70.303,215.125 67.114 C 211.037 65.444,205.962 63.796,200.125 62.244 C 198.855 61.907,196.164 61.389,192.500 60.777 C 182.694 59.140,174.156 58.716,164.500 59.386 M133.625 91.509 C 136.657 91.855,140.153 92.660,142.125 93.466 C 155.544 98.946,163.783 110.968,163.738 125.000 C 163.727 128.465,162.660 134.884,161.974 135.612 C 161.851 135.743,161.750 136.038,161.750 136.267 C 161.750 137.013,158.913 142.345,157.394 144.453 C 144.550 162.283,118.050 162.935,104.195 145.762 C 93.555 132.573,94.486 113.616,106.371 101.457 C 109.334 98.426,112.683 96.049,116.250 94.448 C 117.144 94.047,118.100 93.615,118.375 93.489 C 121.892 91.879,128.902 90.969,133.625 91.509 M222.764 92.231 C 256.189 98.387,260.453 144.696,228.692 156.607 C 203.481 166.062,177.550 142.531,184.634 116.625 C 189.231 99.812,205.928 89.130,222.764 92.231 M132.375 107.128 C 121.879 109.720,118.054 122.828,125.593 130.370 C 133.403 138.185,146.172 134.807,149.054 124.164 C 149.570 122.257,149.569 118.303,149.053 117.000 C 148.096 114.589,147.817 114.001,147.155 113.000 C 144.021 108.260,137.800 105.789,132.375 107.128 M221.375 108.727 C 216.610 109.885,213.303 112.987,211.221 118.250 C 210.545 119.960,210.753 125.064,211.586 127.192 C 216.267 139.153,232.983 139.153,237.664 127.192 C 238.496 125.065,238.705 119.962,238.030 118.250 C 235.066 110.737,228.516 106.992,221.375 108.727 M123.832 134.967 C 114.333 138.509,116.555 152.157,126.625 152.115 C 136.116 152.076,138.857 139.473,130.272 135.347 C 128.414 134.454,125.646 134.291,123.832 134.967 M207.767 134.990 C 198.310 138.506,200.583 152.124,210.625 152.109 C 218.714 152.097,222.488 142.343,216.536 136.832 C 214.282 134.746,210.539 133.959,207.767 134.990 M177.461 162.357 C 185.334 165.303,184.543 172.225,176.089 174.362 C 175.244 174.575,174.316 174.750,174.026 174.750 C 173.306 174.750,173.220 179.815,173.921 180.946 C 176.667 185.379,180.633 184.823,183.118 179.656 C 183.603 178.648,184.000 177.694,184.000 177.536 C 184.000 177.379,184.338 177.250,184.750 177.250 C 185.634 177.250,185.636 177.267,185.032 179.209 C 182.546 187.197,176.031 188.911,172.763 182.438 C 172.572 182.059,172.349 181.750,172.269 181.750 C 172.188 181.750,171.983 182.059,171.813 182.438 C 168.838 189.060,162.112 187.155,159.392 178.919 C 158.791 177.101,160.071 176.295,160.752 178.063 C 163.031 183.977,166.647 185.621,169.710 182.133 C 171.155 180.486,171.500 179.504,171.500 177.031 L 171.500 174.793 169.575 174.339 C 160.939 172.303,160.614 164.491,169.066 162.121 C 170.798 161.635,175.916 161.779,177.461 162.357 " stroke="none" fill="#ffffff" fill-rule="evenodd"></path><path id="path2" d="M307.625 56.234 C 307.350 56.346,306.534 56.518,305.813 56.617 C 305.091 56.716,304.500 56.899,304.500 57.023 C 304.500 57.148,304.331 57.250,304.125 57.250 C 303.919 57.250,303.750 57.348,303.750 57.468 C 303.750 57.588,303.300 57.758,302.750 57.846 C 302.200 57.934,301.750 58.105,301.750 58.226 C 301.750 58.347,301.488 58.512,301.168 58.592 C 300.848 58.672,300.280 59.022,299.905 59.369 C 299.531 59.716,299.142 60.000,299.041 60.000 C 298.940 60.000,298.658 60.337,298.415 60.750 C 298.171 61.163,297.858 61.500,297.718 61.500 C 297.441 61.500,296.750 62.120,296.750 62.369 C 296.750 62.454,296.469 62.785,296.125 63.103 C 295.781 63.422,295.500 63.772,295.500 63.882 C 295.500 64.104,293.986 66.553,293.727 66.750 C 293.637 66.819,293.483 67.241,293.387 67.688 C 293.290 68.134,293.114 68.500,292.995 68.500 C 292.877 68.500,292.702 69.034,292.606 69.688 C 292.509 70.341,292.306 70.955,292.153 71.053 C 291.740 71.318,291.772 79.621,292.188 80.037 C 292.359 80.209,292.500 80.781,292.500 81.308 C 292.500 81.951,292.630 82.316,292.896 82.418 C 293.217 82.541,293.229 82.614,292.958 82.804 C 292.698 82.987,292.693 83.066,292.938 83.165 C 293.109 83.235,293.250 83.556,293.250 83.878 C 293.250 84.200,293.419 84.633,293.625 84.839 C 293.831 85.046,294.000 85.490,294.000 85.827 C 294.000 86.163,294.169 86.579,294.375 86.750 C 294.581 86.921,294.750 87.216,294.750 87.406 C 294.750 87.595,294.863 87.750,295.000 87.750 C 295.137 87.750,295.250 87.967,295.250 88.232 C 295.250 88.497,295.391 88.865,295.563 89.049 C 295.734 89.233,296.156 89.924,296.500 90.583 C 296.844 91.243,297.299 91.972,297.513 92.204 C 297.726 92.436,297.975 92.822,298.067 93.063 C 298.159 93.303,298.350 93.500,298.492 93.500 C 298.634 93.500,298.750 93.632,298.750 93.794 C 298.750 94.182,300.523 96.750,300.792 96.750 C 300.906 96.750,301.000 96.868,301.000 97.012 C 301.000 97.156,301.263 97.522,301.584 97.824 C 301.905 98.127,302.271 98.565,302.397 98.797 C 303.066 100.024,315.453 112.750,315.979 112.750 C 316.203 112.750,316.864 113.365,318.297 114.903 C 319.142 115.812,319.673 116.250,319.927 116.250 C 320.036 116.250,320.557 116.756,321.084 117.375 C 322.189 118.671,322.955 118.807,324.625 118.000 C 325.175 117.734,325.766 117.513,325.938 117.508 C 326.109 117.504,326.250 117.388,326.250 117.250 C 326.250 117.112,326.531 117.000,326.875 117.000 C 327.219 117.000,327.500 116.896,327.500 116.770 C 327.500 116.643,327.837 116.466,328.250 116.375 C 328.663 116.284,329.000 116.121,329.000 116.012 C 329.000 115.903,329.450 115.742,330.000 115.654 C 330.550 115.566,331.000 115.406,331.000 115.299 C 331.000 115.191,331.619 114.893,332.375 114.636 C 333.131 114.379,333.750 114.084,333.750 113.979 C 333.750 113.875,334.087 113.716,334.500 113.625 C 334.913 113.534,335.250 113.369,335.250 113.258 C 335.250 113.147,335.644 112.982,336.125 112.891 C 336.606 112.801,337.000 112.629,337.000 112.509 C 337.000 112.388,337.337 112.216,337.750 112.125 C 338.163 112.034,338.500 111.866,338.500 111.750 C 338.500 111.634,338.837 111.466,339.250 111.375 C 339.663 111.284,340.000 111.107,340.000 110.980 C 340.000 110.854,340.159 110.750,340.354 110.750 C 340.549 110.750,340.746 110.666,340.792 110.563 C 340.838 110.459,341.438 110.094,342.125 109.750 C 342.813 109.406,343.431 109.069,343.500 109.000 C 343.569 108.931,344.075 108.650,344.625 108.376 C 345.175 108.101,345.762 107.763,345.929 107.626 C 346.096 107.488,346.396 107.239,346.595 107.073 C 346.794 106.906,347.248 106.697,347.604 106.608 C 347.959 106.519,348.250 106.368,348.250 106.273 C 348.250 106.179,348.925 105.671,349.750 105.145 C 350.575 104.620,351.250 104.104,351.250 103.999 C 351.250 103.894,351.447 103.742,351.688 103.661 C 352.316 103.451,353.038 102.960,353.674 102.313 C 353.978 102.003,354.319 101.750,354.432 101.750 C 354.546 101.750,354.934 101.441,355.295 101.063 C 356.444 99.859,357.460 99.000,357.734 99.000 C 357.880 99.000,358.000 98.879,358.000 98.732 C 358.000 98.386,358.636 97.750,358.982 97.750 C 359.129 97.750,359.250 97.606,359.250 97.431 C 359.250 97.255,359.560 96.833,359.940 96.493 C 360.844 95.683,362.250 93.878,362.250 93.527 C 362.250 93.374,362.360 93.250,362.495 93.250 C 362.630 93.250,362.811 92.969,362.897 92.625 C 362.984 92.281,363.155 92.000,363.277 92.000 C 363.400 92.000,363.500 91.839,363.500 91.643 C 363.500 91.446,363.642 91.137,363.816 90.955 C 364.492 90.249,365.493 87.921,365.654 86.679 C 365.748 85.962,365.940 85.300,366.081 85.208 C 366.446 84.971,366.443 77.774,366.078 77.547 C 365.926 77.453,365.720 76.728,365.622 75.938 C 365.523 75.147,365.355 74.500,365.248 74.500 C 365.142 74.500,364.979 74.191,364.888 73.813 C 364.647 72.813,364.157 71.750,363.939 71.750 C 363.835 71.750,363.750 71.580,363.750 71.373 C 363.750 71.165,363.525 70.802,363.250 70.567 C 362.975 70.332,362.750 69.955,362.750 69.729 C 362.750 69.504,362.469 69.109,362.125 68.851 C 361.781 68.593,361.500 68.281,361.500 68.158 C 361.500 67.934,359.819 66.250,359.596 66.250 C 359.531 66.250,359.174 65.965,358.802 65.616 C 358.429 65.267,357.619 64.733,357.000 64.428 C 356.381 64.124,355.837 63.791,355.792 63.688 C 355.746 63.584,355.443 63.500,355.119 63.500 C 354.795 63.500,354.469 63.402,354.395 63.283 C 354.321 63.163,353.786 62.990,353.205 62.897 C 352.625 62.804,351.989 62.595,351.792 62.432 C 351.322 62.041,342.802 62.018,342.549 62.407 C 342.453 62.553,341.817 62.748,341.135 62.839 C 340.453 62.930,339.784 63.116,339.648 63.252 C 339.511 63.389,339.141 63.500,338.825 63.500 C 338.509 63.500,338.250 63.612,338.250 63.750 C 338.250 63.888,337.969 64.000,337.625 64.000 C 337.236 64.000,337.000 64.142,337.000 64.375 C 337.000 64.610,336.763 64.750,336.367 64.750 C 336.019 64.750,335.674 64.906,335.601 65.097 C 335.528 65.288,335.145 65.509,334.750 65.588 C 334.010 65.736,330.750 68.693,330.750 69.217 C 330.750 69.874,330.292 69.429,330.141 68.625 C 330.051 68.144,329.893 67.750,329.790 67.750 C 329.687 67.750,329.394 67.244,329.139 66.625 C 328.883 66.006,328.587 65.500,328.479 65.500 C 328.372 65.500,328.217 65.291,328.136 65.035 C 327.970 64.513,325.881 62.326,324.997 61.750 C 324.681 61.544,324.246 61.178,324.031 60.938 C 323.815 60.697,323.446 60.500,323.211 60.500 C 322.976 60.500,322.712 60.275,322.625 60.001 C 322.538 59.726,322.193 59.432,321.858 59.348 C 321.524 59.265,321.250 59.104,321.250 58.993 C 321.250 58.881,320.913 58.716,320.500 58.625 C 320.087 58.534,319.750 58.358,319.750 58.233 C 319.750 58.108,319.300 57.934,318.750 57.846 C 318.200 57.758,317.750 57.588,317.750 57.468 C 317.750 57.348,317.441 57.246,317.063 57.242 C 316.684 57.238,316.157 57.069,315.890 56.867 C 315.619 56.662,314.872 56.500,314.202 56.500 C 313.541 56.500,313.000 56.388,313.000 56.250 C 313.000 55.950,308.361 55.936,307.625 56.234 M162.287 59.270 C 160.863 59.379,159.627 59.540,159.540 59.627 C 159.452 59.714,160.336 59.711,161.503 59.620 C 162.670 59.528,164.863 59.368,166.375 59.263 C 169.121 59.073,169.122 59.072,167.000 59.072 C 165.831 59.071,163.710 59.161,162.287 59.270 M178.875 59.245 C 184.150 59.645,185.930 59.722,184.875 59.504 C 184.325 59.391,182.131 59.239,180.000 59.167 C 176.565 59.051,176.437 59.060,178.875 59.245 M156.000 60.000 L 155.125 60.184 156.000 60.203 C 156.481 60.213,157.325 60.128,157.875 60.014 L 158.875 59.807 157.875 59.812 C 157.325 59.814,156.481 59.899,156.000 60.000 M187.375 60.000 C 187.787 60.105,188.631 60.190,189.250 60.189 L 190.375 60.187 189.250 59.987 C 188.631 59.877,187.787 59.792,187.375 59.798 L 186.625 59.809 187.375 60.000 M151.250 60.750 C 150.642 60.945,150.646 60.950,151.375 60.950 C 151.787 60.950,152.406 60.860,152.750 60.750 C 153.358 60.555,153.354 60.550,152.625 60.550 C 152.213 60.550,151.594 60.640,151.250 60.750 M192.625 60.750 C 193.037 60.855,193.656 60.943,194.000 60.946 L 194.625 60.950 194.000 60.750 C 193.656 60.640,193.037 60.552,192.625 60.554 L 191.875 60.559 192.625 60.750 M148.528 61.270 C 147.925 61.389,147.366 61.550,147.287 61.629 C 147.121 61.796,149.080 61.508,150.000 61.231 C 150.882 60.966,149.954 60.990,148.528 61.270 M195.375 61.229 C 195.650 61.340,196.438 61.501,197.125 61.587 C 197.882 61.682,198.178 61.661,197.875 61.534 C 197.600 61.419,196.813 61.258,196.125 61.176 C 195.400 61.090,195.085 61.113,195.375 61.229 M144.875 62.129 L 143.875 62.470 144.875 62.325 C 145.425 62.244,146.100 62.090,146.375 61.980 L 146.875 61.782 146.375 61.785 C 146.100 61.787,145.425 61.942,144.875 62.129 M199.125 61.972 C 199.892 62.299,201.447 62.566,201.000 62.293 C 200.794 62.167,200.175 61.995,199.625 61.911 C 198.974 61.811,198.799 61.833,199.125 61.972 M142.000 62.892 L 141.125 63.246 142.000 63.094 C 142.992 62.922,143.908 62.507,143.250 62.527 C 143.044 62.533,142.481 62.697,142.000 62.892 M202.000 62.705 C 202.206 62.829,202.769 63.001,203.250 63.086 C 203.795 63.183,203.983 63.159,203.750 63.024 C 203.231 62.724,201.512 62.410,202.000 62.705 M139.535 63.537 C 139.073 63.670,138.744 63.827,138.803 63.886 C 138.862 63.946,139.409 63.838,140.018 63.647 C 141.261 63.257,140.841 63.161,139.535 63.537 M204.625 63.479 C 204.900 63.587,205.463 63.744,205.875 63.828 L 206.625 63.979 205.875 63.626 C 205.463 63.432,204.900 63.275,204.625 63.277 L 204.125 63.282 204.625 63.479 M207.125 64.250 C 207.400 64.368,207.794 64.465,208.000 64.465 C 208.236 64.465,208.190 64.385,207.875 64.250 C 207.600 64.132,207.206 64.035,207.000 64.035 C 206.764 64.035,206.810 64.115,207.125 64.250 M135.625 64.884 C 135.000 65.185,134.979 65.220,135.500 65.092 C 136.208 64.919,137.005 64.513,136.625 64.519 C 136.488 64.521,136.037 64.685,135.625 64.884 M208.750 64.716 C 209.359 65.079,210.412 65.342,210.125 65.060 C 209.988 64.925,209.537 64.742,209.125 64.654 C 208.635 64.549,208.505 64.571,208.750 64.716 M133.027 65.753 C 131.696 66.232,131.199 66.500,131.646 66.500 C 131.908 66.500,134.571 65.509,134.729 65.353 C 134.945 65.140,134.331 65.284,133.027 65.753 M211.250 65.625 C 212.391 66.065,212.841 66.058,211.875 65.616 C 211.463 65.427,210.956 65.276,210.750 65.280 C 210.544 65.285,210.769 65.440,211.250 65.625 M212.771 66.102 C 212.994 66.320,217.306 68.027,217.399 67.934 C 217.454 67.880,216.489 67.422,215.255 66.918 C 213.172 66.066,212.512 65.849,212.771 66.102 M129.125 67.262 C 128.575 67.521,127.689 67.911,127.156 68.127 C 126.624 68.344,126.239 68.572,126.301 68.635 C 126.400 68.733,130.448 67.096,130.729 66.843 C 131.020 66.583,130.003 66.848,129.125 67.262 M217.877 68.253 C 217.961 68.389,218.121 68.500,218.234 68.500 C 218.405 68.500,223.990 71.074,224.563 71.417 C 224.666 71.479,224.750 71.463,224.750 71.382 C 224.750 71.247,219.215 68.541,218.175 68.167 C 217.906 68.071,217.786 68.106,217.877 68.253 M123.793 69.666 C 122.785 70.148,122.009 70.592,122.068 70.652 C 122.128 70.711,123.065 70.313,124.151 69.768 C 126.590 68.543,126.305 68.462,123.793 69.666 M120.373 71.401 C 119.687 71.760,118.675 72.310,118.125 72.623 C 117.575 72.937,116.563 73.507,115.877 73.889 C 114.071 74.894,112.000 76.242,112.000 76.411 C 112.000 76.492,112.253 76.395,112.563 76.196 C 114.250 75.110,117.287 73.341,119.199 72.329 C 121.189 71.276,122.034 70.750,121.736 70.750 C 121.673 70.750,121.059 71.043,120.373 71.401 M225.000 71.599 C 225.000 71.653,225.563 71.992,226.250 72.351 C 227.797 73.160,227.891 73.027,226.393 72.149 C 225.319 71.519,225.000 71.393,225.000 71.599 M227.750 73.120 C 227.750 73.186,228.200 73.469,228.750 73.750 C 229.990 74.382,230.063 74.234,228.861 73.525 C 227.945 72.984,227.750 72.913,227.750 73.120 M231.625 75.380 C 231.900 75.603,232.350 75.897,232.625 76.032 L 233.125 76.278 232.625 75.870 C 232.350 75.647,231.900 75.353,231.625 75.218 L 231.125 74.972 231.625 75.380 M233.418 76.522 C 233.580 76.716,234.086 77.081,234.543 77.333 L 235.375 77.792 234.750 77.264 C 233.862 76.514,233.024 76.047,233.418 76.522 M109.725 77.792 C 106.577 80.058,104.077 81.982,103.746 82.394 C 103.542 82.648,104.095 82.298,104.974 81.616 C 105.854 80.933,107.485 79.717,108.599 78.913 C 110.715 77.387,111.192 77.000,110.963 77.000 C 110.887 77.000,110.330 77.356,109.725 77.792 M236.021 78.290 C 236.648 78.858,238.550 80.277,239.604 80.964 C 240.783 81.731,238.261 79.658,236.877 78.722 C 236.051 78.163,235.666 77.969,236.021 78.290 M241.134 82.125 C 242.763 83.668,245.078 85.611,244.978 85.351 C 244.922 85.203,244.031 84.370,243.000 83.499 C 240.810 81.650,240.011 81.061,241.134 82.125 M100.500 85.105 C 96.783 88.409,91.251 94.332,89.854 96.504 C 89.329 97.321,90.346 96.215,92.409 93.726 C 94.228 91.531,97.430 88.258,100.880 85.066 C 104.106 82.080,103.877 82.104,100.500 85.105 M245.285 85.688 C 245.304 85.791,246.682 87.167,248.348 88.746 L 251.375 91.617 248.379 88.559 C 245.357 85.473,245.222 85.348,245.285 85.688 M129.188 91.433 C 129.772 91.486,130.728 91.486,131.313 91.433 C 131.897 91.380,131.419 91.337,130.250 91.337 C 129.081 91.337,128.603 91.380,129.188 91.433 M126.440 91.677 C 126.751 91.737,127.201 91.734,127.440 91.672 C 127.679 91.609,127.425 91.560,126.875 91.563 C 126.325 91.566,126.129 91.617,126.440 91.677 M133.313 91.672 C 133.553 91.735,133.947 91.735,134.188 91.672 C 134.428 91.609,134.231 91.558,133.750 91.558 C 133.269 91.558,133.072 91.609,133.313 91.672 M123.500 92.000 L 122.875 92.200 123.500 92.196 C 123.844 92.193,124.463 92.105,124.875 92.000 L 125.625 91.809 124.875 91.804 C 124.463 91.802,123.844 91.890,123.500 92.000 M135.625 92.000 C 136.037 92.105,136.656 92.193,137.000 92.196 L 137.625 92.200 137.000 92.000 C 136.656 91.890,136.037 91.802,135.625 91.804 L 134.875 91.809 135.625 92.000 M212.500 91.970 C 212.019 92.055,214.032 92.125,216.974 92.125 C 219.916 92.125,221.885 92.047,221.349 91.952 C 220.167 91.742,213.718 91.755,212.500 91.970 M251.500 91.892 C 251.500 92.025,252.226 92.959,253.113 93.968 C 255.247 96.392,258.462 100.816,260.183 103.694 C 260.946 104.970,261.616 105.967,261.672 105.911 C 261.856 105.727,259.453 101.945,257.042 98.625 C 255.065 95.902,254.055 94.628,251.704 91.888 C 251.576 91.738,251.500 91.740,251.500 91.892 M121.125 92.634 C 120.139 92.975,120.137 92.978,121.000 92.833 C 122.020 92.661,123.062 92.280,122.500 92.285 C 122.294 92.287,121.675 92.444,121.125 92.634 M138.125 92.472 C 138.892 92.799,140.447 93.066,140.000 92.793 C 139.794 92.667,139.175 92.495,138.625 92.411 C 137.974 92.311,137.799 92.333,138.125 92.472 M209.528 92.520 C 208.925 92.639,208.371 92.795,208.299 92.868 C 208.083 93.084,209.037 92.975,210.375 92.631 C 211.786 92.268,211.201 92.192,209.528 92.520 M223.125 92.477 C 223.400 92.592,224.131 92.757,224.750 92.844 C 225.461 92.944,225.691 92.923,225.375 92.788 C 225.100 92.670,224.369 92.505,223.750 92.421 C 223.055 92.327,222.816 92.348,223.125 92.477 M119.125 93.178 C 118.850 93.244,118.513 93.413,118.375 93.552 C 118.206 93.724,118.328 93.747,118.750 93.623 C 120.044 93.243,120.347 92.884,119.125 93.178 M140.529 93.098 C 140.613 93.190,141.055 93.372,141.512 93.503 C 141.990 93.641,142.243 93.645,142.108 93.513 C 141.839 93.250,140.297 92.844,140.529 93.098 M206.625 93.376 L 205.875 93.729 206.625 93.581 C 207.037 93.499,207.544 93.339,207.750 93.224 C 208.423 92.849,207.469 92.978,206.625 93.376 M226.250 93.224 C 226.456 93.339,226.963 93.499,227.375 93.581 L 228.125 93.729 227.375 93.376 C 226.531 92.978,225.577 92.849,226.250 93.224 M117.063 94.008 C 116.225 94.344,116.382 94.515,117.250 94.213 C 117.662 94.069,118.000 93.906,118.000 93.851 C 118.000 93.702,117.696 93.753,117.063 94.008 M142.750 93.863 C 142.750 93.991,144.978 95.006,145.219 94.989 C 145.417 94.974,143.190 93.777,142.938 93.761 C 142.834 93.755,142.750 93.801,142.750 93.863 M202.235 95.189 C 199.621 96.488,195.279 99.359,195.258 99.802 C 195.254 99.900,195.979 99.428,196.869 98.754 C 198.885 97.229,201.640 95.607,203.688 94.742 C 204.548 94.379,205.327 94.007,205.418 93.916 C 205.847 93.486,204.888 93.870,202.235 95.189 M228.637 93.972 C 228.768 94.094,229.156 94.267,229.500 94.357 L 230.125 94.521 229.500 94.144 C 228.803 93.725,228.256 93.615,228.637 93.972 M114.938 95.017 C 114.422 95.289,114.000 95.568,114.000 95.636 C 114.000 95.747,115.975 94.825,116.229 94.594 C 116.517 94.334,115.766 94.580,114.938 95.017 M232.178 95.611 C 234.435 96.822,236.064 97.878,237.688 99.181 C 238.272 99.650,238.746 99.942,238.742 99.829 C 238.718 99.248,231.266 94.508,230.375 94.508 C 230.238 94.508,231.049 95.004,232.178 95.611 M145.500 95.081 C 145.500 95.142,146.147 95.577,146.938 96.048 C 147.728 96.520,148.713 97.111,149.125 97.363 L 149.875 97.821 149.125 97.172 C 148.384 96.531,145.500 94.867,145.500 95.081 M110.334 97.956 C 107.575 100.008,102.964 104.750,103.729 104.750 C 103.878 104.750,104.000 104.645,104.000 104.517 C 104.000 104.044,108.180 99.886,110.122 98.428 C 112.398 96.719,112.661 96.500,112.447 96.500 C 112.362 96.500,111.412 97.155,110.334 97.956 M88.563 98.188 C 87.623 99.397,87.339 99.879,87.698 99.657 C 87.988 99.478,89.552 97.250,89.388 97.250 C 89.335 97.250,88.964 97.672,88.563 98.188 M150.250 98.078 C 150.250 98.139,150.784 98.620,151.438 99.145 C 152.091 99.670,152.400 99.840,152.125 99.523 C 151.609 98.927,150.250 97.880,150.250 98.078 M86.555 101.063 C 85.642 102.410,85.445 102.750,85.575 102.750 C 85.632 102.750,86.090 102.131,86.592 101.375 C 87.094 100.619,87.453 100.000,87.390 100.000 C 87.326 100.000,86.950 100.478,86.555 101.063 M152.750 100.025 C 152.750 100.093,153.381 100.818,154.153 101.637 C 154.925 102.455,156.068 103.800,156.693 104.625 C 158.093 106.471,158.492 106.883,157.841 105.810 C 156.932 104.312,152.750 99.560,152.750 100.025 M193.098 101.807 C 190.421 104.628,187.214 109.047,187.578 109.412 C 187.654 109.487,187.938 109.116,188.211 108.587 C 189.089 106.882,191.129 104.176,193.076 102.133 C 194.121 101.038,194.941 100.107,194.899 100.066 C 194.857 100.024,194.047 100.808,193.098 101.807 M239.005 100.000 C 239.004 100.069,239.857 101.020,240.900 102.114 C 243.094 104.413,244.689 106.564,246.180 109.235 C 246.760 110.275,247.238 111.010,247.243 110.869 C 247.255 110.430,245.163 106.925,243.880 105.236 C 242.734 103.727,239.007 99.725,239.005 100.000 M102.153 106.688 C 101.013 108.457,99.998 110.342,100.004 110.678 C 100.005 110.786,100.465 110.031,101.026 109.000 C 101.586 107.969,102.295 106.787,102.602 106.375 C 103.345 105.377,103.560 105.000,103.385 105.000 C 103.305 105.000,102.751 105.759,102.153 106.688 M83.265 106.407 C 82.970 106.905,82.783 107.366,82.847 107.431 C 82.912 107.495,83.200 107.088,83.488 106.524 C 84.134 105.257,83.988 105.180,83.265 106.407 M133.300 106.712 C 132.983 106.802,134.030 106.875,135.627 106.875 C 137.224 106.875,138.270 106.802,137.952 106.712 C 137.635 106.623,136.588 106.550,135.625 106.550 C 134.662 106.550,133.616 106.623,133.300 106.712 M158.742 107.643 C 159.587 109.054,159.894 109.303,159.281 108.079 C 158.993 107.504,158.622 106.950,158.456 106.848 C 158.290 106.745,158.419 107.103,158.742 107.643 M131.125 107.250 C 130.488 107.524,131.145 107.524,132.000 107.250 C 132.502 107.089,132.527 107.048,132.125 107.042 C 131.850 107.038,131.400 107.132,131.125 107.250 M139.875 107.481 C 140.563 107.727,141.350 108.017,141.625 108.126 C 141.957 108.257,142.041 108.240,141.875 108.074 C 141.526 107.726,139.580 106.996,139.057 107.018 C 138.820 107.027,139.188 107.236,139.875 107.481 M262.500 107.605 C 262.500 107.866,264.321 111.262,264.412 111.171 C 264.523 111.060,262.767 107.500,262.601 107.500 C 262.545 107.500,262.500 107.547,262.500 107.605 M127.332 109.162 C 125.526 110.528,122.739 113.822,123.091 114.175 C 123.154 114.238,123.492 113.802,123.842 113.207 C 124.567 111.973,126.651 109.879,128.121 108.908 C 128.668 108.546,128.986 108.250,128.827 108.250 C 128.668 108.250,127.995 108.661,127.332 109.162 M142.250 108.328 C 142.250 108.386,142.728 108.749,143.313 109.134 C 143.897 109.520,144.243 109.675,144.082 109.480 C 143.772 109.105,142.250 108.147,142.250 108.328 M221.300 108.497 C 220.846 108.604,220.404 108.763,220.318 108.849 C 220.152 109.014,221.449 108.795,222.500 108.480 C 223.368 108.220,222.413 108.233,221.300 108.497 M226.750 108.464 C 227.784 108.801,229.166 109.015,228.750 108.774 C 228.544 108.654,227.869 108.490,227.250 108.408 C 226.512 108.311,226.340 108.331,226.750 108.464 M217.878 109.819 C 216.307 110.665,213.289 113.432,212.774 114.500 C 212.529 115.007,212.577 114.983,213.027 114.375 C 214.135 112.878,216.563 110.781,218.200 109.908 C 219.121 109.416,219.762 109.014,219.625 109.014 C 219.488 109.014,218.701 109.376,217.878 109.819 M230.935 109.889 C 233.091 110.938,235.826 113.513,236.713 115.329 C 237.037 115.991,237.356 116.478,237.423 116.411 C 238.344 115.489,231.351 108.981,229.465 109.004 C 229.278 109.006,229.940 109.405,230.935 109.889 M144.500 109.799 C 144.500 110.011,146.297 111.786,146.404 111.680 C 146.452 111.632,146.043 111.155,145.495 110.621 C 144.948 110.086,144.500 109.716,144.500 109.799 M160.500 110.843 C 160.500 110.894,160.783 111.541,161.129 112.280 C 161.764 113.638,161.737 113.128,161.092 111.584 C 160.797 110.878,160.500 110.506,160.500 110.843 M99.304 112.063 C 98.826 113.145,98.359 114.725,98.583 114.499 C 98.770 114.312,99.993 111.000,99.875 111.000 C 99.819 111.000,99.562 111.478,99.304 112.063 M186.021 112.386 C 185.734 113.034,185.506 113.690,185.514 113.844 C 185.522 113.999,185.805 113.517,186.142 112.774 C 186.480 112.031,186.708 111.374,186.649 111.315 C 186.590 111.257,186.307 111.738,186.021 112.386 M247.250 111.437 C 247.250 111.557,247.413 111.873,247.613 112.140 C 247.962 112.608,247.970 112.605,247.832 112.059 C 247.690 111.494,247.250 111.025,247.250 111.437 M264.518 111.625 C 264.518 111.763,264.678 112.156,264.875 112.500 C 265.072 112.844,265.232 113.013,265.232 112.875 C 265.232 112.737,265.072 112.344,264.875 112.000 C 264.678 111.656,264.518 111.487,264.518 111.625 M147.155 113.000 C 148.007 114.288,148.180 114.290,147.445 113.002 C 147.131 112.453,146.789 112.003,146.684 112.002 C 146.579 112.001,146.791 112.450,147.155 113.000 M80.031 112.906 C 79.866 113.268,79.789 113.622,79.859 113.692 C 79.929 113.762,80.105 113.507,80.250 113.125 C 80.593 112.223,80.421 112.051,80.031 112.906 M248.008 113.000 C 248.008 113.206,248.117 113.544,248.250 113.750 C 248.465 114.083,248.492 114.083,248.492 113.750 C 248.492 113.544,248.383 113.206,248.250 113.000 C 248.035 112.667,248.008 112.667,248.008 113.000 M265.259 113.388 C 265.264 113.518,265.437 113.906,265.644 114.250 L 266.021 114.875 265.857 114.250 C 265.687 113.598,265.243 112.958,265.259 113.388 M161.905 114.375 C 161.994 114.787,162.166 115.294,162.287 115.500 C 162.428 115.740,162.448 115.605,162.345 115.125 C 162.256 114.713,162.084 114.206,161.963 114.000 C 161.822 113.760,161.802 113.895,161.905 114.375 M148.124 114.625 C 148.233 114.900,148.489 115.607,148.693 116.197 C 148.898 116.786,149.123 117.210,149.194 117.140 C 149.354 116.979,148.524 114.713,148.180 114.375 C 148.009 114.206,147.991 114.287,148.124 114.625 M248.672 114.875 C 248.756 115.287,248.913 115.850,249.021 116.125 L 249.218 116.625 249.223 116.125 C 249.225 115.850,249.068 115.287,248.874 114.875 L 248.521 114.125 248.672 114.875 M122.487 115.160 C 122.349 115.522,122.282 115.866,122.339 115.922 C 122.396 115.979,122.562 115.682,122.708 115.263 C 123.033 114.330,122.837 114.239,122.487 115.160 M98.171 115.096 C 98.077 115.341,98.007 115.729,98.016 115.958 C 98.026 116.234,98.113 116.171,98.273 115.771 C 98.406 115.439,98.475 115.051,98.428 114.909 C 98.381 114.767,98.265 114.851,98.171 115.096 M184.921 115.346 C 184.827 115.591,184.757 115.979,184.766 116.208 C 184.776 116.484,184.863 116.421,185.023 116.021 C 185.156 115.689,185.225 115.301,185.178 115.159 C 185.131 115.017,185.015 115.101,184.921 115.346 M266.161 115.499 C 266.250 115.842,266.532 116.573,266.787 117.124 C 267.042 117.675,267.178 117.844,267.089 117.501 C 267.000 117.158,266.718 116.427,266.463 115.876 C 266.208 115.325,266.072 115.156,266.161 115.499 M212.009 115.734 C 211.692 116.325,211.677 116.574,211.970 116.394 C 212.190 116.257,212.534 115.250,212.360 115.250 C 212.309 115.250,212.151 115.468,212.009 115.734 M78.625 116.250 C 78.531 116.546,78.511 116.844,78.579 116.913 C 78.648 116.981,78.781 116.796,78.875 116.500 C 78.969 116.204,78.989 115.906,78.921 115.837 C 78.852 115.769,78.719 115.954,78.625 116.250 M121.782 117.351 C 121.627 117.967,121.511 118.731,121.525 119.048 C 121.539 119.365,121.708 118.903,121.901 118.022 C 122.302 116.189,122.208 115.660,121.782 117.351 M162.659 117.125 C 162.941 118.791,163.248 119.513,163.085 118.125 C 163.004 117.438,162.837 116.706,162.714 116.500 C 162.573 116.265,162.553 116.497,162.659 117.125 M97.503 117.861 C 97.343 118.631,97.259 119.400,97.316 119.568 C 97.374 119.737,97.549 119.151,97.706 118.266 C 98.060 116.271,97.900 115.951,97.503 117.861 M184.246 118.145 C 184.087 118.912,184.012 119.595,184.079 119.663 C 184.147 119.730,184.269 119.440,184.351 119.018 C 184.433 118.596,184.565 117.912,184.645 117.500 C 184.725 117.088,184.733 116.750,184.663 116.750 C 184.593 116.750,184.405 117.378,184.246 118.145 M211.278 117.528 C 211.124 117.970,211.041 118.375,211.095 118.428 C 211.148 118.482,211.318 118.164,211.472 117.722 C 211.626 117.280,211.709 116.875,211.655 116.822 C 211.602 116.768,211.432 117.086,211.278 117.528 M237.643 117.250 C 237.735 117.594,237.915 118.044,238.042 118.250 C 238.203 118.511,238.223 118.434,238.107 118.000 C 238.015 117.656,237.835 117.206,237.708 117.000 C 237.547 116.739,237.527 116.816,237.643 117.250 M249.418 117.625 C 249.661 119.142,250.021 120.107,249.838 118.750 C 249.754 118.131,249.590 117.400,249.472 117.125 C 249.334 116.803,249.315 116.980,249.418 117.625 M78.028 118.028 C 77.874 118.470,77.791 118.875,77.845 118.928 C 77.898 118.982,78.068 118.664,78.222 118.222 C 78.376 117.780,78.459 117.375,78.405 117.322 C 78.352 117.268,78.182 117.586,78.028 118.028 M149.375 120.750 C 149.375 122.390,149.451 123.539,149.545 123.303 C 149.638 123.068,149.715 121.919,149.715 120.750 C 149.715 119.581,149.638 118.432,149.545 118.197 C 149.451 117.961,149.375 119.110,149.375 120.750 M267.419 118.875 C 267.501 119.287,267.661 119.794,267.776 120.000 C 268.151 120.673,268.022 119.719,267.624 118.875 L 267.271 118.125 267.419 118.875 M210.656 119.531 C 210.458 120.521,210.497 124.438,210.712 125.202 C 210.802 125.520,210.875 124.198,210.875 122.265 C 210.875 118.389,210.878 118.424,210.656 119.531 M238.375 122.250 C 238.375 124.191,238.448 125.520,238.538 125.202 C 238.627 124.885,238.700 123.556,238.700 122.250 C 238.700 120.944,238.627 119.615,238.538 119.298 C 238.448 118.980,238.375 120.309,238.375 122.250 M77.275 120.150 C 77.131 120.671,77.059 121.142,77.114 121.197 C 77.169 121.252,77.331 120.871,77.475 120.350 C 77.619 119.829,77.691 119.358,77.636 119.303 C 77.581 119.248,77.419 119.629,77.275 120.150 M163.375 124.877 C 163.375 127.736,163.453 129.636,163.548 129.100 C 163.772 127.837,163.772 121.912,163.548 120.653 C 163.453 120.118,163.375 122.019,163.375 124.877 M97.063 121.125 C 97.066 121.675,97.117 121.871,97.177 121.560 C 97.237 121.249,97.234 120.799,97.172 120.560 C 97.109 120.321,97.060 120.575,97.063 121.125 M183.660 121.438 C 183.465 122.617,183.506 128.128,183.717 129.111 C 183.804 129.516,183.875 127.744,183.875 125.173 C 183.875 120.025,183.880 120.110,183.660 121.438 M250.125 125.250 C 250.125 127.916,250.196 129.766,250.283 129.361 C 250.370 128.956,250.441 127.106,250.441 125.250 C 250.441 123.394,250.370 121.544,250.283 121.139 C 250.196 120.734,250.125 122.584,250.125 125.250 M268.159 121.125 C 268.421 122.314,268.780 123.029,268.598 122.000 C 268.512 121.519,268.341 120.956,268.218 120.750 C 268.071 120.505,268.050 120.635,268.159 121.125 M76.290 123.466 C 75.993 124.549,75.759 125.647,75.769 125.905 C 75.780 126.164,76.064 125.318,76.400 124.026 C 76.736 122.735,76.970 121.637,76.920 121.587 C 76.870 121.537,76.587 122.382,76.290 123.466 M121.647 122.987 C 121.720 123.736,121.888 124.523,122.019 124.737 C 122.196 125.026,122.223 124.966,122.122 124.500 C 122.047 124.156,121.880 123.369,121.750 122.750 L 121.515 121.625 121.647 122.987 M96.769 124.646 C 96.779 126.009,96.873 127.631,96.978 128.250 C 97.087 128.893,97.118 127.874,97.051 125.875 C 96.913 121.797,96.742 121.050,96.769 124.646 M268.785 123.375 C 268.787 123.650,268.942 124.325,269.129 124.875 L 269.470 125.875 269.325 124.875 C 269.244 124.325,269.090 123.650,268.980 123.375 L 268.782 122.875 268.785 123.375 M148.834 124.921 C 148.229 127.246,146.340 129.842,143.500 132.248 L 142.875 132.778 143.500 132.476 C 145.473 131.522,149.498 125.782,149.202 124.345 C 149.140 124.041,149.009 124.245,148.834 124.921 M122.268 125.446 C 122.246 125.842,123.311 127.946,123.877 128.625 C 124.140 128.942,124.106 128.801,123.784 128.240 C 123.503 127.753,123.052 126.853,122.780 126.240 C 122.508 125.627,122.277 125.269,122.268 125.446 M211.140 126.626 C 211.323 127.384,212.184 129.250,212.351 129.250 C 212.454 129.250,211.253 126.193,211.075 126.001 C 211.011 125.932,211.041 126.213,211.140 126.626 M237.774 126.787 C 237.443 127.738,237.430 127.926,237.718 127.612 C 237.957 127.351,238.323 126.000,238.154 126.000 C 238.096 126.000,237.925 126.354,237.774 126.787 M269.670 127.125 C 269.749 127.813,269.856 128.422,269.907 128.479 C 270.083 128.676,269.950 127.125,269.738 126.500 C 269.594 126.079,269.572 126.282,269.670 127.125 M75.423 127.051 C 75.171 128.108,74.934 130.127,75.078 129.994 C 75.251 129.834,75.774 126.691,75.649 126.566 C 75.600 126.517,75.498 126.735,75.423 127.051 M270.170 130.000 C 270.412 132.302,270.754 133.668,270.597 131.698 C 270.523 130.776,270.364 129.707,270.244 129.323 C 270.090 128.830,270.068 129.029,270.170 130.000 M125.494 130.619 C 126.237 131.372,126.882 131.952,126.926 131.908 C 127.025 131.808,124.483 129.250,124.285 129.250 C 124.207 129.250,124.750 129.866,125.494 130.619 M212.920 130.206 C 213.490 131.247,216.109 133.785,217.189 134.343 C 218.367 134.953,218.183 134.703,216.788 133.799 C 215.623 133.044,214.265 131.712,213.042 130.125 L 212.465 129.375 212.920 130.206 M236.111 130.181 C 235.866 130.556,235.154 131.428,234.530 132.119 L 233.394 133.375 234.643 132.187 C 235.330 131.534,236.092 130.662,236.335 130.250 C 236.889 129.313,236.715 129.260,236.111 130.181 M97.300 130.500 C 97.300 130.844,97.390 131.406,97.500 131.750 L 97.700 132.375 97.700 131.750 C 97.700 131.406,97.610 130.844,97.500 130.500 L 97.300 129.875 97.300 130.500 M162.771 131.762 C 162.450 133.258,162.442 133.504,162.729 133.000 C 162.987 132.549,163.346 130.500,163.168 130.500 C 163.098 130.500,162.920 131.068,162.771 131.762 M184.148 131.596 C 184.226 132.267,184.390 133.054,184.511 133.346 C 184.658 133.699,184.680 133.502,184.576 132.750 C 184.346 131.097,183.971 130.083,184.148 131.596 M249.649 131.482 C 249.567 131.904,249.435 132.588,249.355 133.000 C 249.275 133.412,249.267 133.750,249.337 133.750 C 249.517 133.750,250.070 130.987,249.921 130.837 C 249.853 130.770,249.731 131.060,249.649 131.482 M74.668 131.801 C 74.496 132.791,74.227 138.035,74.374 137.500 C 74.532 136.929,75.003 131.169,74.900 131.067 C 74.850 131.017,74.746 131.348,74.668 131.801 M315.888 131.228 C 315.811 131.354,315.311 131.530,314.777 131.620 C 314.244 131.710,313.574 132.002,313.289 132.267 C 313.004 132.533,312.651 132.750,312.505 132.750 C 312.184 132.750,310.000 134.728,310.000 135.019 C 310.000 135.132,309.717 135.529,309.372 135.902 C 309.026 136.275,308.673 137.016,308.588 137.549 C 308.446 138.440,308.400 138.487,308.009 138.134 C 307.776 137.923,307.468 137.750,307.323 137.750 C 307.179 137.750,306.921 137.581,306.750 137.375 C 306.579 137.169,306.237 137.000,305.990 137.000 C 305.744 137.000,305.501 136.877,305.450 136.726 C 305.330 136.366,299.941 136.327,299.183 136.680 C 298.876 136.823,298.164 137.132,297.599 137.366 C 296.426 137.854,295.250 138.856,295.250 139.368 C 295.250 139.560,295.046 139.781,294.797 139.860 C 294.103 140.080,292.763 143.680,293.210 144.126 C 293.293 144.209,293.195 144.384,292.993 144.514 C 292.670 144.721,292.671 144.780,293.000 144.996 C 293.251 145.161,293.271 145.244,293.063 145.246 C 292.873 145.248,292.750 145.594,292.750 146.125 C 292.750 146.606,292.850 147.000,292.972 147.000 C 293.094 147.000,293.268 147.497,293.359 148.105 C 293.450 148.712,293.688 149.345,293.887 149.510 C 294.087 149.676,294.250 149.919,294.250 150.051 C 294.250 150.555,298.449 154.401,299.516 154.874 C 300.126 155.145,300.774 155.509,300.955 155.683 C 301.137 155.857,301.503 156.000,301.768 156.000 C 302.033 156.000,302.250 156.103,302.250 156.228 C 302.250 156.353,302.700 156.532,303.250 156.625 C 303.800 156.718,304.250 156.887,304.250 157.000 C 304.250 157.113,304.728 157.286,305.313 157.384 C 305.897 157.481,306.431 157.640,306.500 157.735 C 306.716 158.036,308.732 158.750,309.365 158.750 C 309.698 158.750,310.036 158.856,310.116 158.986 C 310.196 159.115,310.793 159.290,311.443 159.373 C 312.093 159.457,312.808 159.625,313.032 159.746 C 314.341 160.454,316.117 160.314,316.381 159.481 C 316.467 159.210,316.923 158.613,317.394 158.156 C 317.865 157.699,318.250 157.201,318.250 157.050 C 318.250 156.899,318.399 156.685,318.581 156.575 C 318.763 156.465,319.185 155.981,319.518 155.501 C 319.852 155.020,320.322 154.444,320.563 154.221 C 320.803 153.999,321.000 153.741,321.000 153.648 C 321.000 153.420,322.078 151.896,322.313 151.792 C 322.416 151.746,322.500 151.589,322.500 151.444 C 322.500 151.298,322.934 150.492,323.464 149.652 C 323.994 148.812,324.514 147.844,324.619 147.500 C 324.725 147.156,324.897 146.762,325.002 146.625 C 325.107 146.488,325.274 145.981,325.375 145.500 C 325.476 145.019,325.654 144.505,325.772 144.357 C 326.449 143.513,326.415 136.786,325.733 136.542 C 325.605 136.496,325.500 136.268,325.500 136.035 C 325.500 135.802,325.163 135.242,324.750 134.790 C 324.337 134.339,324.000 133.864,324.000 133.735 C 324.000 133.606,323.841 133.500,323.646 133.500 C 323.451 133.500,323.254 133.406,323.208 133.291 C 322.980 132.716,320.860 131.500,320.087 131.500 C 319.627 131.500,319.250 131.387,319.250 131.250 C 319.250 130.936,316.082 130.916,315.888 131.228 M127.625 132.380 C 127.900 132.603,128.350 132.897,128.625 133.032 L 129.125 133.278 128.625 132.870 C 128.350 132.647,127.900 132.353,127.625 132.218 L 127.125 131.972 127.625 132.380 M129.750 133.625 C 130.094 133.822,130.488 133.982,130.625 133.982 C 130.762 133.982,130.594 133.822,130.250 133.625 C 129.906 133.428,129.512 133.268,129.375 133.268 C 129.238 133.268,129.406 133.428,129.750 133.625 M140.875 133.634 C 140.247 133.936,140.227 133.971,140.750 133.844 C 141.094 133.762,141.482 133.594,141.613 133.472 C 141.937 133.169,141.759 133.208,140.875 133.634 M232.261 133.906 C 231.004 134.798,230.980 134.908,232.188 134.243 C 232.772 133.921,233.250 133.566,233.250 133.454 C 233.250 133.196,233.283 133.180,232.261 133.906 M98.035 133.750 C 98.035 133.956,98.132 134.350,98.250 134.625 C 98.385 134.940,98.465 134.986,98.465 134.750 C 98.465 134.544,98.368 134.150,98.250 133.875 C 98.115 133.560,98.035 133.514,98.035 133.750 M162.162 134.188 C 162.095 134.428,161.962 134.906,161.867 135.250 C 161.751 135.669,161.777 135.793,161.946 135.625 C 162.221 135.352,162.619 133.750,162.412 133.750 C 162.341 133.750,162.229 133.947,162.162 134.188 M131.375 134.222 C 131.650 134.340,132.381 134.504,133.000 134.588 C 133.740 134.688,133.911 134.669,133.500 134.534 C 132.567 134.226,130.769 133.963,131.375 134.222 M138.515 134.273 C 136.896 134.590,136.679 134.773,138.125 134.601 C 138.813 134.519,139.544 134.354,139.750 134.234 C 140.193 133.975,139.999 133.981,138.515 134.273 M184.771 134.250 C 184.779 134.456,184.882 134.850,185.000 135.125 L 185.215 135.625 185.229 135.125 C 185.236 134.850,185.133 134.456,185.000 134.250 C 184.785 133.917,184.759 133.917,184.771 134.250 M248.696 135.313 C 248.472 136.034,248.221 136.850,248.138 137.125 C 248.054 137.400,248.201 137.168,248.463 136.609 C 248.928 135.618,249.383 134.000,249.196 134.000 C 249.145 134.000,248.920 134.591,248.696 135.313 M124.587 134.441 C 124.429 134.542,125.353 134.625,126.640 134.625 C 127.928 134.625,128.789 134.549,128.553 134.455 C 127.970 134.224,124.944 134.213,124.587 134.441 M208.587 134.441 C 208.429 134.542,209.353 134.625,210.640 134.625 C 211.928 134.625,212.789 134.549,212.553 134.455 C 211.970 134.224,208.944 134.213,208.587 134.441 M270.875 141.000 C 270.875 144.644,270.950 147.063,271.041 146.375 C 271.132 145.688,271.206 143.269,271.206 141.000 C 271.206 138.731,271.132 136.313,271.041 135.625 C 270.950 134.938,270.875 137.356,270.875 141.000 M122.250 135.395 C 121.039 136.082,119.373 137.576,118.948 138.357 C 118.803 138.622,119.290 138.221,120.030 137.466 C 120.770 136.710,121.994 135.794,122.750 135.430 C 123.506 135.066,123.956 134.766,123.750 134.762 C 123.544 134.759,122.869 135.043,122.250 135.395 M129.250 134.851 C 129.250 134.906,129.616 135.073,130.063 135.222 C 130.806 135.470,130.834 135.462,130.390 135.122 C 129.942 134.779,129.250 134.614,129.250 134.851 M206.250 135.395 C 205.039 136.082,203.373 137.576,202.948 138.357 C 202.803 138.622,203.312 138.197,204.079 137.412 C 204.890 136.581,206.027 135.732,206.799 135.381 C 207.528 135.050,207.956 134.774,207.750 134.767 C 207.544 134.761,206.869 135.043,206.250 135.395 M213.250 134.834 C 213.250 134.898,213.613 135.078,214.057 135.232 C 214.501 135.387,214.754 135.411,214.619 135.285 C 214.335 135.018,213.250 134.661,213.250 134.834 M218.375 134.926 C 218.724 135.274,220.670 136.004,221.193 135.982 C 221.430 135.973,221.063 135.764,220.375 135.519 C 219.688 135.273,218.900 134.983,218.625 134.874 C 218.293 134.743,218.209 134.760,218.375 134.926 M230.000 135.144 L 229.375 135.521 230.000 135.357 C 230.344 135.267,230.732 135.094,230.863 134.972 C 231.244 134.615,230.697 134.725,230.000 135.144 M98.643 135.750 C 98.735 136.094,98.915 136.544,99.042 136.750 C 99.203 137.011,99.223 136.934,99.107 136.500 C 99.015 136.156,98.835 135.706,98.708 135.500 C 98.547 135.239,98.527 135.316,98.643 135.750 M131.375 135.867 C 131.650 136.089,132.139 136.499,132.461 136.779 C 132.783 137.058,133.100 137.234,133.165 137.169 C 133.230 137.104,132.910 136.774,132.454 136.437 C 131.487 135.721,130.641 135.274,131.375 135.867 M215.375 135.861 C 215.650 136.080,216.184 136.548,216.563 136.901 C 216.941 137.254,217.250 137.426,217.250 137.284 C 217.250 137.142,216.884 136.755,216.438 136.425 C 215.495 135.728,214.634 135.271,215.375 135.861 M228.125 135.750 L 227.625 135.965 228.125 135.979 C 228.400 135.986,228.794 135.883,229.000 135.750 C 229.497 135.429,228.872 135.429,228.125 135.750 M161.500 136.064 C 161.500 136.099,161.389 136.514,161.254 136.985 C 161.117 137.464,161.109 137.738,161.237 137.608 C 161.519 137.319,161.860 136.000,161.652 136.000 C 161.568 136.000,161.500 136.029,161.500 136.064 M222.298 136.288 C 222.615 136.377,223.662 136.450,224.625 136.450 C 225.588 136.450,226.635 136.377,226.952 136.288 C 227.270 136.198,226.222 136.125,224.625 136.125 C 223.028 136.125,221.980 136.198,222.298 136.288 M99.393 137.750 C 99.483 138.094,99.656 138.482,99.778 138.613 C 100.135 138.994,100.025 138.447,99.606 137.750 L 99.229 137.125 99.393 137.750 M133.500 137.577 C 133.500 137.773,134.526 139.500,134.642 139.500 C 134.693 139.500,134.662 139.303,134.575 139.063 C 134.401 138.587,133.500 137.342,133.500 137.577 M217.504 137.548 C 217.499 137.775,218.517 139.500,218.656 139.500 C 218.715 139.500,218.595 139.191,218.391 138.813 C 217.881 137.872,217.508 137.340,217.504 137.548 M186.018 137.875 C 186.018 138.012,186.178 138.406,186.375 138.750 C 186.572 139.094,186.732 139.262,186.732 139.125 C 186.732 138.988,186.572 138.594,186.375 138.250 C 186.178 137.906,186.018 137.738,186.018 137.875 M247.531 138.406 C 247.366 138.768,247.289 139.122,247.359 139.192 C 247.429 139.262,247.605 139.007,247.750 138.625 C 247.895 138.243,247.973 137.890,247.923 137.839 C 247.872 137.789,247.696 138.044,247.531 138.406 M100.000 139.187 C 100.000 139.307,100.163 139.623,100.363 139.890 C 100.712 140.358,100.720 140.355,100.582 139.809 C 100.440 139.244,100.000 138.775,100.000 139.187 M118.291 139.636 C 117.872 140.555,117.952 140.751,118.405 139.915 C 118.616 139.525,118.742 139.159,118.685 139.102 C 118.628 139.045,118.450 139.285,118.291 139.636 M202.257 139.607 C 201.886 140.584,201.959 140.738,202.405 139.915 C 202.616 139.525,202.727 139.144,202.652 139.068 C 202.576 138.993,202.398 139.235,202.257 139.607 M159.625 140.500 C 159.277 141.188,159.048 141.750,159.117 141.750 C 159.185 141.750,159.527 141.188,159.875 140.500 C 160.223 139.813,160.452 139.250,160.383 139.250 C 160.315 139.250,159.973 139.813,159.625 140.500 M186.918 139.941 C 186.996 140.253,187.159 140.569,187.280 140.644 C 187.622 140.855,187.539 140.398,187.137 139.860 C 186.788 139.392,186.780 139.395,186.918 139.941 M218.909 140.375 C 219.171 141.564,219.530 142.279,219.348 141.250 C 219.262 140.769,219.091 140.206,218.968 140.000 C 218.821 139.755,218.800 139.885,218.909 140.375 M100.765 140.559 C 100.692 141.467,107.707 150.377,108.147 149.936 C 108.188 149.895,107.316 148.908,106.209 147.743 C 104.518 145.963,103.373 144.422,101.077 140.840 C 100.913 140.584,100.773 140.458,100.765 140.559 M117.658 141.313 C 117.457 142.060,117.490 145.012,117.705 145.553 C 117.799 145.789,117.875 144.804,117.875 143.366 C 117.875 140.501,117.875 140.501,117.658 141.313 M201.658 141.313 C 201.457 142.060,201.490 145.012,201.705 145.553 C 201.799 145.789,201.875 144.804,201.875 143.366 C 201.875 140.501,201.875 140.501,201.658 141.313 M187.868 141.737 C 189.422 144.741,193.915 149.924,196.375 151.550 L 197.125 152.046 196.375 151.375 C 192.827 148.204,190.335 145.369,188.629 142.563 C 187.636 140.930,187.214 140.471,187.868 141.737 M245.371 142.563 C 244.161 144.552,241.988 147.326,240.588 148.668 C 239.990 149.242,239.500 149.797,239.500 149.902 C 239.500 150.781,244.880 144.157,246.132 141.737 C 246.786 140.471,246.364 140.930,245.371 142.563 M157.498 143.938 C 156.759 145.003,155.107 146.941,153.827 148.245 C 150.963 151.162,150.757 151.593,153.529 148.869 C 155.340 147.089,158.097 143.720,158.769 142.465 C 159.286 141.498,158.795 142.067,157.498 143.938 M74.411 146.935 C 74.483 148.480,74.637 150.055,74.753 150.435 C 74.982 151.181,74.830 148.576,74.481 145.750 C 74.332 144.549,74.314 144.859,74.411 146.935 M219.045 145.795 C 218.897 146.380,218.819 146.902,218.871 146.955 C 218.924 147.007,219.094 146.578,219.250 146.000 C 219.406 145.422,219.484 144.901,219.424 144.841 C 219.364 144.781,219.194 145.211,219.045 145.795 M118.143 146.750 C 118.233 147.094,118.406 147.482,118.528 147.613 C 118.885 147.994,118.775 147.447,118.356 146.750 L 117.979 146.125 118.143 146.750 M202.143 146.750 C 202.233 147.094,202.406 147.482,202.528 147.613 C 202.885 147.994,202.775 147.447,202.356 146.750 L 201.979 146.125 202.143 146.750 M133.934 148.250 C 133.574 148.800,133.365 149.250,133.469 149.250 C 133.573 149.250,133.911 148.800,134.220 148.250 C 134.529 147.700,134.739 147.250,134.685 147.250 C 134.632 147.250,134.294 147.700,133.934 148.250 M218.157 147.938 C 217.961 148.317,217.565 148.840,217.276 149.102 C 216.987 149.363,216.750 149.701,216.750 149.851 C 216.750 150.002,217.042 149.787,217.399 149.375 C 218.071 148.597,218.857 147.250,218.638 147.250 C 218.569 147.250,218.353 147.560,218.157 147.938 M118.951 148.408 C 119.609 149.638,122.833 152.018,123.803 151.991 C 123.980 151.986,123.506 151.684,122.750 151.320 C 121.994 150.956,120.770 150.040,120.030 149.284 C 119.290 148.529,118.804 148.135,118.951 148.408 M202.951 148.408 C 203.611 149.642,206.847 152.028,207.803 151.986 C 207.980 151.978,207.528 151.700,206.799 151.369 C 206.027 151.018,204.890 150.169,204.079 149.338 C 203.312 148.553,202.804 148.135,202.951 148.408 M270.367 150.367 C 270.269 151.277,270.246 152.079,270.314 152.148 C 270.383 152.216,270.519 151.527,270.617 150.617 C 270.714 149.706,270.738 148.904,270.669 148.836 C 270.600 148.767,270.464 149.456,270.367 150.367 M108.508 150.198 C 108.513 150.295,109.385 151.004,110.446 151.774 C 112.417 153.202,113.713 153.985,112.393 152.949 C 110.391 151.378,108.501 150.039,108.508 150.198 M131.991 150.357 C 131.790 150.554,131.063 151.001,130.375 151.351 C 129.688 151.701,129.276 151.990,129.461 151.994 C 129.884 152.002,132.500 150.450,132.500 150.192 C 132.500 149.921,132.408 149.951,131.991 150.357 M215.985 150.363 C 215.787 150.557,215.063 151.010,214.375 151.370 C 213.688 151.731,213.406 151.947,213.750 151.851 C 214.094 151.755,214.825 151.397,215.375 151.055 C 216.591 150.298,216.613 150.280,216.464 150.131 C 216.399 150.065,216.183 150.170,215.985 150.363 M238.000 151.031 C 237.324 151.641,237.174 151.849,237.625 151.550 C 238.316 151.093,239.461 149.990,239.226 150.007 C 239.171 150.012,238.619 150.472,238.000 151.031 M150.125 151.520 C 148.644 152.640,148.455 152.939,149.800 152.034 C 150.446 151.599,151.043 151.132,151.127 150.997 C 151.359 150.621,151.212 150.698,150.125 151.520 M75.162 153.250 C 75.245 154.006,75.405 154.850,75.518 155.125 C 75.774 155.752,75.499 153.369,75.215 152.500 C 75.089 152.116,75.069 152.405,75.162 153.250 M124.697 152.295 C 124.932 152.388,125.744 152.465,126.500 152.465 C 127.256 152.465,128.068 152.388,128.303 152.295 C 128.539 152.201,127.727 152.125,126.500 152.125 C 125.273 152.125,124.461 152.201,124.697 152.295 M208.697 152.295 C 208.932 152.388,209.744 152.465,210.500 152.465 C 211.256 152.465,212.068 152.388,212.303 152.295 C 212.539 152.201,211.727 152.125,210.500 152.125 C 209.273 152.125,208.461 152.201,208.697 152.295 M198.875 153.321 C 199.677 154.003,204.229 156.354,204.405 156.178 C 204.463 156.120,203.467 155.558,202.193 154.929 C 200.918 154.299,199.481 153.537,199.000 153.234 L 198.125 152.684 198.875 153.321 M234.713 153.363 C 233.712 154.044,231.268 155.318,230.153 155.740 C 229.756 155.891,229.491 156.075,229.566 156.149 C 229.749 156.333,234.308 154.051,235.176 153.340 C 236.102 152.582,235.843 152.596,234.713 153.363 M113.250 153.622 C 113.250 153.770,116.658 155.503,116.931 155.493 C 117.098 155.488,113.493 153.500,113.316 153.500 C 113.280 153.500,113.250 153.555,113.250 153.622 M269.654 154.717 C 269.555 155.455,269.528 156.112,269.594 156.177 C 269.760 156.344,270.076 154.103,269.942 153.703 C 269.882 153.523,269.752 153.979,269.654 154.717 M144.500 154.887 C 143.881 155.216,143.466 155.489,143.576 155.493 C 143.863 155.503,146.000 154.512,146.000 154.369 C 146.000 154.155,145.642 154.279,144.500 154.887 M117.750 155.856 C 118.447 156.275,118.994 156.385,118.612 156.028 C 118.482 155.906,118.094 155.733,117.750 155.643 L 117.125 155.479 117.750 155.856 M142.375 155.884 C 141.747 156.186,141.727 156.221,142.250 156.094 C 142.594 156.012,142.982 155.844,143.113 155.722 C 143.437 155.419,143.259 155.458,142.375 155.884 M75.750 156.241 C 75.750 156.735,76.816 160.517,76.925 160.409 C 77.024 160.309,76.015 156.203,75.846 156.021 C 75.793 155.964,75.750 156.063,75.750 156.241 M119.875 156.624 C 120.719 157.022,121.673 157.151,121.000 156.776 C 120.794 156.661,120.287 156.501,119.875 156.419 L 119.125 156.271 119.875 156.624 M140.125 156.626 L 139.375 156.979 140.125 156.831 C 140.537 156.749,141.044 156.589,141.250 156.474 C 141.923 156.099,140.969 156.228,140.125 156.626 M204.751 156.332 C 204.976 156.553,207.849 157.500,208.241 157.482 C 208.452 157.473,208.006 157.254,207.250 156.996 C 205.617 156.438,204.578 156.162,204.751 156.332 M227.125 156.871 C 226.162 157.194,225.550 157.468,225.764 157.479 C 226.194 157.502,229.250 156.514,229.250 156.352 C 229.250 156.184,228.959 156.256,227.125 156.871 M269.021 157.646 C 268.859 158.287,268.774 158.858,268.832 158.915 C 268.889 158.972,269.068 158.495,269.229 157.854 C 269.391 157.213,269.476 156.642,269.418 156.585 C 269.361 156.528,269.182 157.005,269.021 157.646 M121.875 157.250 C 122.150 157.368,122.656 157.462,123.000 157.458 L 123.625 157.450 123.000 157.250 C 122.656 157.140,122.150 157.047,121.875 157.042 L 121.375 157.035 121.875 157.250 M137.125 157.369 C 136.438 157.546,136.100 157.693,136.375 157.696 C 136.650 157.699,137.438 157.557,138.125 157.381 C 138.813 157.204,139.150 157.057,138.875 157.054 C 138.600 157.051,137.813 157.193,137.125 157.369 M125.750 158.003 C 126.875 158.213,129.926 158.332,129.729 158.158 C 129.672 158.107,128.500 158.004,127.125 157.929 C 125.416 157.836,124.981 157.859,125.750 158.003 M132.375 158.000 L 130.875 158.166 132.375 158.194 C 133.200 158.209,134.325 158.128,134.875 158.014 L 135.875 157.807 134.875 157.821 C 134.325 157.828,133.200 157.909,132.375 158.000 M210.000 158.000 C 210.917 158.294,212.058 158.294,211.375 158.000 C 211.100 157.882,210.537 157.788,210.125 157.792 C 209.394 157.800,209.391 157.805,210.000 158.000 M222.625 158.000 C 221.942 158.294,223.083 158.294,224.000 158.000 C 224.609 157.805,224.606 157.800,223.875 157.792 C 223.463 157.788,222.900 157.882,222.625 158.000 M213.651 158.548 C 214.908 158.772,219.092 158.772,220.349 158.548 C 220.885 158.453,219.378 158.375,217.000 158.375 C 214.622 158.375,213.115 158.453,213.651 158.548 M268.275 160.400 C 268.131 160.921,268.059 161.392,268.114 161.447 C 268.169 161.502,268.331 161.121,268.475 160.600 C 268.619 160.079,268.691 159.608,268.636 159.553 C 268.581 159.498,268.419 159.879,268.275 160.400 M169.290 162.046 C 168.693 162.179,168.253 162.336,168.312 162.395 C 168.370 162.454,169.140 162.344,170.022 162.151 C 170.903 161.958,171.344 161.801,171.000 161.802 C 170.656 161.803,169.887 161.913,169.290 162.046 M175.125 162.005 C 177.041 162.470,177.400 162.522,177.000 162.277 C 176.794 162.151,176.063 161.983,175.375 161.905 C 174.162 161.767,174.155 161.770,175.125 162.005 M267.550 162.675 C 267.180 163.880,267.359 164.059,267.750 162.875 C 267.915 162.375,268.001 161.918,267.942 161.858 C 267.882 161.799,267.706 162.166,267.550 162.675 M166.489 163.115 C 165.303 163.733,163.249 165.758,163.251 166.307 C 163.251 166.482,163.461 166.287,163.718 165.875 C 164.369 164.826,165.170 164.137,166.757 163.263 C 168.367 162.376,168.144 162.253,166.489 163.115 M178.625 163.042 C 180.259 163.891,181.771 165.259,182.283 166.351 C 182.547 166.914,182.704 167.169,182.632 166.917 C 182.559 166.665,182.500 166.353,182.500 166.224 C 182.500 165.427,178.759 162.458,177.821 162.511 C 177.713 162.517,178.075 162.756,178.625 163.042 M77.767 163.165 C 77.741 163.609,78.806 166.278,78.951 166.133 C 79.065 166.018,78.914 165.579,78.045 163.500 C 77.901 163.156,77.776 163.006,77.767 163.165 M266.875 164.500 C 266.781 164.796,266.761 165.094,266.829 165.163 C 266.898 165.231,267.031 165.046,267.125 164.750 C 267.219 164.454,267.239 164.156,267.171 164.087 C 267.102 164.019,266.969 164.204,266.875 164.500 M266.270 166.053 C 266.259 166.151,266.027 166.798,265.754 167.491 C 265.481 168.183,265.307 168.750,265.367 168.750 C 265.581 168.750,266.510 166.406,266.401 166.143 C 266.339 165.995,266.281 165.955,266.270 166.053 M162.906 167.135 C 162.820 167.358,162.764 167.897,162.781 168.333 C 162.807 168.992,162.844 168.936,162.999 168.000 C 163.198 166.804,163.162 166.468,162.906 167.135 M79.264 167.156 C 79.245 167.541,80.266 169.817,80.399 169.685 C 80.458 169.626,80.230 168.969,79.892 168.226 C 79.555 167.483,79.272 167.001,79.264 167.156 M182.782 168.125 C 182.683 169.845,181.510 171.529,179.540 172.779 C 178.914 173.175,178.517 173.500,178.658 173.500 C 180.165 173.500,183.171 169.703,182.933 168.100 L 182.825 167.375 182.782 168.125 M264.781 169.656 C 264.616 170.018,264.539 170.372,264.609 170.442 C 264.679 170.512,264.855 170.257,265.000 169.875 C 265.343 168.973,265.171 168.801,264.781 169.656 M163.010 169.353 C 162.938 170.924,168.483 175.101,169.410 174.174 C 169.470 174.113,169.023 173.939,168.416 173.786 C 166.441 173.289,164.490 171.759,163.448 169.891 C 163.213 169.470,163.016 169.228,163.010 169.353 M80.500 170.089 C 80.500 170.346,82.488 174.250,82.619 174.250 C 82.738 174.250,80.859 170.275,80.632 170.049 C 80.559 169.976,80.500 169.994,80.500 170.089 M264.079 171.188 C 263.993 171.428,263.876 171.738,263.818 171.875 C 263.760 172.012,263.890 171.907,264.106 171.640 C 264.499 171.155,264.618 170.750,264.367 170.750 C 264.294 170.750,264.164 170.947,264.079 171.188 M263.038 173.288 C 262.720 173.841,262.511 174.345,262.574 174.408 C 262.637 174.470,262.932 174.053,263.231 173.481 C 263.935 172.130,263.789 171.984,263.038 173.288 M309.813 172.434 C 309.228 172.486,308.750 172.635,308.750 172.764 C 308.750 172.894,308.534 173.000,308.271 173.000 C 307.750 173.000,305.750 174.731,305.750 175.181 C 305.750 175.334,305.609 175.505,305.438 175.563 C 305.019 175.703,304.991 181.934,305.407 182.197 C 305.562 182.295,305.769 182.853,305.866 183.438 C 305.964 184.022,306.147 184.500,306.272 184.500 C 306.397 184.500,306.500 184.612,306.500 184.748 C 306.500 185.152,307.353 187.000,307.539 187.000 C 307.633 187.000,307.782 187.328,307.870 187.729 C 307.958 188.130,308.192 188.520,308.390 188.596 C 308.588 188.672,308.750 188.963,308.750 189.242 C 308.750 189.521,308.854 189.750,308.980 189.750 C 309.107 189.750,309.284 190.088,309.375 190.500 C 309.475 190.955,309.704 191.258,309.957 191.270 C 311.341 191.335,313.639 191.182,313.747 191.017 C 313.818 190.911,314.757 190.745,315.836 190.649 C 316.915 190.553,317.983 190.374,318.211 190.251 C 318.439 190.128,319.047 189.960,319.563 189.877 C 320.078 189.795,320.500 189.620,320.500 189.489 C 320.500 189.357,320.781 189.250,321.125 189.250 C 321.469 189.250,321.750 189.137,321.750 189.000 C 321.750 188.863,321.922 188.750,322.133 188.750 C 322.343 188.750,322.580 188.581,322.660 188.375 C 322.739 188.169,322.977 188.000,323.189 188.000 C 323.726 188.000,325.195 186.432,325.391 185.648 C 325.481 185.292,325.655 185.000,325.777 185.000 C 326.068 185.000,326.068 181.322,325.778 181.142 C 325.655 181.067,325.483 180.717,325.395 180.365 C 325.214 179.646,323.634 178.000,323.124 178.000 C 322.941 178.000,322.750 177.875,322.699 177.723 C 322.578 177.359,319.648 177.066,318.375 177.291 C 317.025 177.529,316.500 177.342,316.500 176.626 C 316.500 176.301,316.331 175.867,316.125 175.661 C 315.919 175.454,315.750 175.205,315.750 175.106 C 315.750 174.765,314.088 173.312,313.482 173.122 C 313.148 173.018,312.819 172.851,312.750 172.752 C 312.568 172.490,311.040 172.325,309.813 172.434 M177.125 173.884 C 176.132 174.228,176.131 174.229,177.000 174.089 C 177.481 174.011,177.982 173.847,178.113 173.724 C 178.405 173.449,178.367 173.455,177.125 173.884 M170.500 174.546 C 170.981 174.684,171.457 174.927,171.558 175.086 C 171.695 175.300,171.743 175.297,171.746 175.071 C 171.751 174.670,170.929 174.244,170.204 174.273 C 169.765 174.290,169.837 174.356,170.500 174.546 M174.125 174.469 L 173.375 174.629 173.304 177.432 C 173.160 183.145,177.460 186.139,181.142 182.889 C 181.682 182.412,182.012 182.018,181.875 182.015 C 181.738 182.011,181.344 182.305,181.000 182.668 C 178.900 184.883,175.909 184.155,173.921 180.946 C 173.593 180.418,173.500 179.658,173.500 177.509 L 173.500 174.750 174.188 174.725 C 174.566 174.711,175.156 174.610,175.500 174.500 L 176.125 174.300 175.500 174.304 C 175.156 174.307,174.537 174.381,174.125 174.469 M261.719 175.813 C 261.421 176.397,261.013 177.156,260.812 177.500 C 260.462 178.100,260.464 178.105,260.869 177.625 C 261.358 177.044,262.568 174.750,262.384 174.750 C 262.316 174.750,262.017 175.228,261.719 175.813 M84.018 176.938 C 84.460 177.728,84.995 178.544,85.205 178.750 C 85.550 179.087,85.550 179.061,85.211 178.500 C 85.003 178.156,84.522 177.341,84.143 176.688 C 83.763 176.034,83.399 175.500,83.333 175.500 C 83.267 175.500,83.575 176.147,84.018 176.938 M171.558 177.500 C 171.558 177.981,171.609 178.178,171.672 177.938 C 171.735 177.697,171.735 177.303,171.672 177.063 C 171.609 176.822,171.558 177.019,171.558 177.500 M159.149 177.461 C 158.992 177.716,159.484 179.600,159.661 179.422 C 159.730 179.353,159.677 178.899,159.542 178.413 C 159.310 177.573,159.331 177.523,159.962 177.427 L 160.625 177.325 159.952 177.287 C 159.582 177.267,159.221 177.345,159.149 177.461 M184.000 177.465 C 184.000 177.584,184.287 177.626,184.638 177.559 C 185.432 177.407,185.352 177.916,184.125 180.813 C 183.674 181.878,183.347 182.750,183.398 182.750 C 183.731 182.750,185.500 178.292,185.500 177.455 C 185.500 177.342,185.162 177.250,184.750 177.250 C 184.338 177.250,184.000 177.347,184.000 177.465 M160.508 178.000 C 160.508 178.206,160.617 178.544,160.750 178.750 C 160.965 179.083,160.992 179.083,160.992 178.750 C 160.992 178.544,160.883 178.206,160.750 178.000 C 160.535 177.667,160.508 177.667,160.508 178.000 M183.542 178.737 C 183.396 179.157,183.329 179.500,183.394 179.500 C 183.563 179.500,184.035 178.201,183.911 178.078 C 183.854 178.021,183.688 178.318,183.542 178.737 M258.689 180.688 C 257.788 182.028,256.690 183.631,256.249 184.250 C 255.508 185.288,255.501 185.314,256.161 184.590 C 257.285 183.353,260.725 178.250,260.434 178.250 C 260.375 178.250,259.589 179.347,258.689 180.688 M85.517 179.375 C 85.518 179.512,85.805 179.963,86.156 180.375 C 86.507 180.787,86.680 180.900,86.541 180.625 C 86.161 179.878,85.516 179.090,85.517 179.375 M161.168 179.691 C 161.246 180.003,161.409 180.319,161.530 180.394 C 161.872 180.605,161.789 180.148,161.387 179.610 C 161.038 179.142,161.030 179.145,161.168 179.691 M170.938 180.349 C 169.028 184.354,165.639 185.023,162.861 181.945 C 162.137 181.143,161.846 180.920,162.118 181.375 C 164.041 184.591,167.271 185.103,169.659 182.572 C 170.526 181.654,171.635 179.802,171.437 179.604 C 171.384 179.550,171.159 179.886,170.938 180.349 M159.886 180.313 C 159.980 180.622,160.159 180.985,160.285 181.119 C 160.411 181.254,160.387 181.001,160.232 180.557 C 159.916 179.649,159.623 179.442,159.886 180.313 M182.551 180.767 C 182.240 181.308,182.036 181.750,182.097 181.750 C 182.269 181.750,183.320 179.987,183.212 179.879 C 183.160 179.826,182.862 180.226,182.551 180.767 M86.886 181.500 C 87.162 181.994,89.686 185.416,90.492 186.389 C 93.038 189.460,94.011 190.524,97.119 193.635 C 99.047 195.565,101.288 197.703,102.099 198.385 C 105.006 200.830,109.951 204.527,109.637 204.020 C 109.545 203.870,108.829 203.299,108.047 202.751 C 101.351 198.060,94.147 190.995,89.055 184.125 C 87.235 181.670,86.452 180.722,86.886 181.500 M171.401 182.604 C 168.875 186.914,164.665 187.373,161.978 183.631 C 161.113 182.428,160.802 182.163,161.262 183.022 C 163.740 187.652,169.347 187.381,171.788 182.514 C 171.964 182.162,172.141 181.827,172.182 181.768 C 172.222 181.710,172.417 181.878,172.615 182.143 C 172.961 182.607,172.970 182.604,172.833 182.063 C 172.616 181.199,172.113 181.389,171.401 182.604 M173.000 182.874 C 173.000 183.996,176.495 186.494,178.071 186.498 C 179.794 186.502,182.195 184.997,183.054 183.375 C 183.200 183.100,182.842 183.412,182.258 184.068 C 179.675 186.974,176.820 186.945,174.159 183.985 C 173.522 183.276,173.000 182.776,173.000 182.874 M253.606 187.563 C 252.677 188.697,252.229 189.344,252.611 189.000 C 253.337 188.346,255.615 185.500,255.412 185.500 C 255.348 185.500,254.535 186.428,253.606 187.563 M248.067 193.461 C 246.110 195.459,244.541 197.124,244.579 197.163 C 244.618 197.201,246.330 195.549,248.384 193.491 C 250.438 191.434,252.008 189.768,251.872 189.790 C 251.736 189.812,250.024 191.464,248.067 193.461 M242.500 198.653 C 240.599 200.286,235.997 203.763,233.938 205.122 C 232.337 206.178,231.974 206.612,233.438 205.719 C 236.585 203.798,244.954 197.226,244.218 197.253 C 244.167 197.255,243.394 197.885,242.500 198.653 M110.000 204.304 C 110.000 204.440,111.782 205.704,113.063 206.476 C 114.459 207.318,114.195 206.950,112.688 205.953 C 110.308 204.380,110.000 204.191,110.000 204.304 M230.875 207.033 C 230.188 207.459,229.512 207.923,229.375 208.064 C 229.098 208.349,230.821 207.369,231.771 206.701 C 232.769 205.999,232.212 206.206,230.875 207.033 M115.625 207.932 C 115.763 208.077,116.550 208.563,117.375 209.013 C 118.200 209.463,118.763 209.713,118.625 209.568 C 118.487 209.423,117.700 208.937,116.875 208.487 C 116.050 208.037,115.487 207.787,115.625 207.932 M227.688 208.891 C 227.034 209.231,226.500 209.566,226.500 209.634 C 226.500 209.702,227.063 209.473,227.750 209.125 C 228.438 208.777,229.000 208.437,229.000 208.371 C 229.000 208.205,229.022 208.197,227.688 208.891 M223.500 211.130 C 222.056 211.872,220.988 212.483,221.125 212.489 C 221.413 212.501,225.756 210.311,226.113 209.974 C 226.502 209.606,226.244 209.721,223.500 211.130 M123.360 212.137 C 123.898 212.539,124.355 212.622,124.144 212.280 C 124.069 212.159,123.753 211.996,123.441 211.918 C 122.895 211.780,122.892 211.788,123.360 212.137 M124.606 212.720 C 124.681 212.841,124.997 213.004,125.309 213.082 C 125.855 213.220,125.858 213.212,125.390 212.863 C 124.852 212.461,124.395 212.378,124.606 212.720 M217.625 213.880 C 216.938 214.204,216.544 214.471,216.750 214.473 C 216.956 214.476,217.631 214.206,218.250 213.875 C 219.688 213.105,219.263 213.109,217.625 213.880 M127.250 213.894 C 127.250 214.063,128.549 214.535,128.672 214.411 C 128.729 214.354,128.432 214.188,128.013 214.042 C 127.593 213.896,127.250 213.829,127.250 213.894 M129.125 214.694 C 129.262 214.831,129.656 215.025,130.000 215.125 C 130.417 215.246,130.542 215.223,130.375 215.056 C 130.238 214.919,129.844 214.725,129.500 214.625 C 129.083 214.504,128.958 214.527,129.125 214.694 M215.375 214.884 C 214.747 215.186,214.727 215.221,215.250 215.094 C 215.594 215.012,215.982 214.844,216.113 214.722 C 216.437 214.419,216.259 214.458,215.375 214.884 M131.000 215.458 C 131.206 215.585,131.656 215.765,132.000 215.857 C 132.434 215.973,132.511 215.953,132.250 215.792 C 132.044 215.665,131.594 215.485,131.250 215.393 C 130.816 215.277,130.739 215.297,131.000 215.458 M213.375 215.634 C 212.750 215.935,212.729 215.970,213.250 215.842 C 213.958 215.669,214.755 215.263,214.375 215.269 C 214.238 215.271,213.787 215.435,213.375 215.634 M133.000 216.208 C 133.206 216.335,133.656 216.515,134.000 216.607 C 134.434 216.723,134.511 216.703,134.250 216.542 C 134.044 216.415,133.594 216.235,133.250 216.143 C 132.816 216.027,132.739 216.047,133.000 216.208 M210.681 216.559 C 209.886 216.840,209.290 217.124,209.356 217.189 C 209.493 217.327,212.005 216.500,212.363 216.200 C 212.723 215.897,212.295 215.988,210.681 216.559 M135.000 217.000 C 135.206 217.133,135.544 217.242,135.750 217.242 C 136.083 217.242,136.083 217.215,135.750 217.000 C 135.544 216.867,135.206 216.758,135.000 216.758 C 134.667 216.758,134.667 216.785,135.000 217.000 M136.875 217.624 C 137.719 218.022,138.673 218.151,138.000 217.776 C 137.794 217.661,137.287 217.501,136.875 217.419 L 136.125 217.271 136.875 217.624 M207.750 217.625 C 207.269 217.810,207.044 217.965,207.250 217.970 C 207.456 217.974,207.963 217.823,208.375 217.634 C 209.341 217.192,208.891 217.185,207.750 217.625 M138.750 218.210 C 138.956 218.338,139.519 218.517,140.000 218.607 C 140.581 218.717,140.749 218.694,140.500 218.540 C 140.294 218.412,139.731 218.233,139.250 218.143 C 138.669 218.033,138.501 218.056,138.750 218.210 M205.535 218.287 C 205.073 218.420,204.742 218.575,204.799 218.632 C 204.925 218.759,206.750 218.273,206.750 218.113 C 206.750 217.966,206.552 217.994,205.535 218.287 M141.000 218.811 C 141.218 219.046,145.013 220.037,145.312 219.938 C 145.470 219.885,144.818 219.651,143.862 219.417 C 142.907 219.183,141.844 218.921,141.500 218.834 C 141.156 218.747,140.931 218.737,141.000 218.811 M202.813 219.030 C 202.366 219.159,202.000 219.315,202.000 219.376 C 202.000 219.534,203.551 219.222,204.000 218.973 C 204.524 218.683,203.914 218.712,202.813 219.030 M200.250 219.750 L 199.625 219.950 200.250 219.958 C 200.594 219.962,201.100 219.868,201.375 219.750 L 201.875 219.535 201.375 219.542 C 201.100 219.547,200.594 219.640,200.250 219.750 M146.125 220.227 C 146.400 220.342,147.131 220.507,147.750 220.594 C 148.461 220.694,148.691 220.673,148.375 220.538 C 148.100 220.420,147.369 220.255,146.750 220.171 C 146.055 220.077,145.816 220.098,146.125 220.227 M197.625 220.385 L 196.375 220.723 197.500 220.579 C 198.119 220.501,198.850 220.345,199.125 220.234 C 199.904 219.919,199.026 220.007,197.625 220.385 M149.755 220.976 C 150.676 221.268,152.981 221.539,152.375 221.283 C 152.100 221.167,151.256 221.006,150.500 220.924 C 149.672 220.835,149.376 220.856,149.755 220.976 M194.015 221.023 C 193.404 221.142,192.785 221.297,192.640 221.367 C 192.209 221.573,195.079 221.205,195.625 220.984 L 196.125 220.782 195.625 220.793 C 195.350 220.800,194.625 220.903,194.015 221.023 M154.000 221.723 C 154.344 221.833,155.469 221.990,156.500 222.072 C 157.720 222.169,158.069 222.149,157.500 222.014 C 156.290 221.727,153.214 221.472,154.000 221.723 M189.131 221.779 C 188.309 221.898,187.521 222.048,187.381 222.110 C 186.974 222.292,190.557 221.941,191.250 221.732 L 191.875 221.543 191.250 221.552 C 190.906 221.557,189.953 221.659,189.131 221.779 M159.875 222.502 C 160.856 222.717,163.934 222.840,163.729 222.657 C 163.672 222.605,162.556 222.500,161.250 222.424 C 159.599 222.326,159.180 222.350,159.875 222.502 M182.875 222.500 L 181.375 222.666 182.875 222.694 C 183.700 222.709,184.825 222.628,185.375 222.514 L 186.375 222.307 185.375 222.321 C 184.825 222.328,183.700 222.409,182.875 222.500 M165.192 222.931 C 165.641 222.987,166.316 222.986,166.692 222.929 C 167.068 222.872,166.700 222.826,165.875 222.827 C 165.050 222.829,164.743 222.876,165.192 222.931 M178.688 222.931 C 179.134 222.986,179.866 222.986,180.313 222.931 C 180.759 222.875,180.394 222.830,179.500 222.830 C 178.606 222.830,178.241 222.875,178.688 222.931 M171.188 223.185 C 172.047 223.234,173.453 223.234,174.313 223.185 C 175.172 223.136,174.469 223.096,172.750 223.096 C 171.031 223.096,170.328 223.136,171.188 223.185 " stroke="none" fill="#ff5a79" fill-rule="evenodd"></path></g></svg>